<svg width="64" height="37" viewBox="0 0 64 37" fill="none" xmlns="http://www.w3.org/2000/svg">
<path fill-rule="evenodd" clip-rule="evenodd" d="M48.9107 18.7169C49.3097 17.4773 49.4092 16.3342 49.2795 15.3064C49.1096 13.9582 48.5452 12.7997 47.746 11.8827C46.9356 10.9524 45.8883 10.2646 44.765 9.86968C43.7691 9.51974 42.7207 9.40455 41.7359 9.56032C41.0184 9.67331 40.3198 9.90039 39.667 10.2251C38.8242 10.6442 38.0619 11.2223 37.4338 11.9276C36.8514 11.355 36.2937 10.8142 35.7516 10.3074C36.5731 9.41223 37.5567 8.67725 38.6342 8.14191C39.5161 7.70421 40.4617 7.39706 41.4375 7.24238C42.8291 7.02189 44.29 7.17766 45.6581 7.65814C47.1447 8.17921 48.5284 9.08752 49.597 10.3151C50.6767 11.5547 51.439 13.1146 51.667 14.9257C51.7475 15.5653 51.762 16.2355 51.7006 16.9332C50.8142 17.7538 49.8976 18.3308 48.9096 18.718L48.9107 18.7169Z" fill="#C81B77"/>
<path fill-rule="evenodd" clip-rule="evenodd" d="M49.427 18.4931C49.7321 17.3369 49.7858 16.2607 49.6427 15.2811C49.4382 13.8726 48.8279 12.6538 47.9806 11.6808C47.1211 10.6946 46.0201 9.9563 44.8465 9.52189C43.807 9.13794 42.7161 8.99533 41.699 9.13794C40.9568 9.24216 40.237 9.46375 39.5675 9.78956C38.6464 10.236 37.8227 10.8745 37.1643 11.6621C36.5429 11.0533 35.9482 10.4829 35.3704 9.95191C36.2299 8.96462 37.285 8.16381 38.4542 7.59667C39.3596 7.15787 40.3342 6.8562 41.3435 6.71578C42.7832 6.51394 44.3011 6.70591 45.7295 7.23466C47.2821 7.80839 48.7362 8.78361 49.8707 10.0836C51.0164 11.3977 51.8391 13.0399 52.114 14.9323C52.1844 15.416 52.2191 15.9152 52.2135 16.4286C51.3227 17.3599 50.4084 18.0302 49.4281 18.4942L49.427 18.4931Z" fill="#E9008A"/>
<path fill-rule="evenodd" clip-rule="evenodd" d="M44.7012 9.84757C43.5365 9.46472 42.7787 9.41317 41.7347 9.56016L41.3368 6.71018C42.7496 6.51272 44.2988 6.7003 45.7027 7.21918L44.7012 9.84757Z" fill="#F287B4"/>
<path fill-rule="evenodd" clip-rule="evenodd" d="M49.0692 14.295C48.7976 13.3713 48.3807 12.5694 47.5894 11.7104L49.5655 9.76657C50.5815 10.7506 51.3606 12.0801 51.7898 13.4909L49.0692 14.2961V14.295Z" fill="#F287B4"/>
<path fill-rule="evenodd" clip-rule="evenodd" d="M49.0692 14.2948C48.7976 13.3712 48.3807 12.5693 47.5894 11.7103L47.8095 11.4931C47.8677 11.5545 47.9236 11.6182 47.9794 11.6818C48.602 12.3959 49.0961 13.2417 49.3956 14.1983L49.0681 14.2948H49.0692Z" fill="#DB669A"/>
<path fill-rule="evenodd" clip-rule="evenodd" d="M38.5156 10.9326C38.0942 11.2541 37.741 11.5788 37.4325 11.9265C36.7116 11.2168 36.0287 10.5575 35.3658 9.94865C35.785 9.47036 36.2544 9.02498 36.7552 8.62677L38.5156 10.9326Z" fill="#F287B4"/>
<path fill-rule="evenodd" clip-rule="evenodd" d="M38.5157 10.9328C38.0943 11.2543 37.7411 11.5792 37.4326 11.9271C37.342 11.8382 37.2526 11.7504 37.1643 11.6637C37.4918 11.2708 37.8618 10.9152 38.263 10.6024L38.5157 10.9339V10.9328Z" fill="#DB669A"/>
<path opacity="0.18" fill-rule="evenodd" clip-rule="evenodd" d="M49.6695 18.3747C49.7478 18.1158 49.8104 17.8591 49.8573 17.6035C50.1155 16.2114 49.93 14.8742 49.4415 13.696C48.9464 12.5014 48.1438 11.4647 47.1759 10.6946C46.3186 10.0112 45.335 9.54168 44.3301 9.36287C44.2206 9.34313 44.1099 9.32667 44.0004 9.31241C44.2485 9.32996 44.4955 9.36068 44.7403 9.40456C45.7452 9.58447 46.7288 10.054 47.5861 10.7363C48.554 11.5075 49.3555 12.5431 49.8517 13.7377C50.3402 14.9169 50.5257 16.2542 50.2675 17.6452C50.2396 17.7955 50.2072 17.9457 50.168 18.0971C50.0037 18.1969 49.8372 18.2891 49.6695 18.3758V18.3747ZM49.9613 22.7824L50.0205 22.8295C49.9736 22.8877 49.9266 22.9458 49.8797 23.0029L49.74 22.8921C49.8137 22.8559 49.8875 22.8197 49.9613 22.7824ZM35.671 10.2317C35.7537 10.3096 35.8376 10.3875 35.9225 10.4675C36.2433 10.0649 36.5943 9.69307 36.9698 9.3541C38.4341 8.03113 40.2671 7.20729 42.1751 6.9484C42.8603 6.85515 43.5544 6.83431 44.2463 6.88806C43.4192 6.78714 42.5842 6.79591 41.7638 6.90671C39.8569 7.1656 38.0227 7.98944 36.5585 9.31241C36.2444 9.59653 35.9471 9.90369 35.671 10.2317Z" fill="white"/>
<path fill-rule="evenodd" clip-rule="evenodd" d="M42.0455 16.4723C42.2858 15.4554 42.3506 14.433 42.2635 13.4381C42.1025 11.6028 41.4352 9.85968 40.4125 8.41055C39.506 7.12597 38.3257 6.08273 36.9822 5.42673C36.0019 4.94844 34.9445 4.62483 33.8558 4.46028C31.8171 4.15203 29.6822 4.39995 27.753 5.22489C26.3022 4.76964 24.8704 4.55682 23.4296 4.54804C23.0518 4.53598 22.6874 4.53927 22.3331 4.55462C23.4419 3.56185 24.6781 2.77201 25.9881 2.17854C28.6617 0.969655 31.6338 0.594483 34.455 1.02012C35.9248 1.24171 37.3577 1.68051 38.6889 2.33102C40.5891 3.25908 42.2377 4.70601 43.4829 6.46997C44.8354 8.38642 45.7184 10.689 45.9307 13.1101C46.1073 15.1187 45.8279 17.2073 44.9807 19.2269C44.3771 18.6938 43.8495 18.1815 43.4281 17.7865C42.9497 17.3379 42.4892 16.9002 42.0444 16.4712L42.0455 16.4723ZM21.3596 13.1496C21.3283 13.1364 21.297 13.1232 21.2668 13.1101L21.3607 13.1496H21.3596ZM17.8555 12.046C18.7865 12.2215 19.797 12.5276 20.8588 12.9455C19.797 12.5265 18.7865 12.2215 17.8555 12.046Z" fill="#E78625"/>
<path fill-rule="evenodd" clip-rule="evenodd" d="M42.459 16.8696C42.7507 15.7068 42.8312 14.5341 42.7306 13.3943C42.5585 11.4472 41.8711 9.59656 40.8226 8.05638C39.8927 6.69172 38.6855 5.58047 37.3129 4.87839C36.3114 4.3672 35.2317 4.02055 34.1218 3.84174C31.969 3.49618 29.7134 3.77921 27.6971 4.72152C27.4914 4.81806 27.2891 4.92008 27.0879 5.03088C25.864 4.70726 24.6501 4.55368 23.4295 4.5471C22.8114 4.52736 22.2246 4.5471 21.668 4.60195C22.9646 3.21755 24.4724 2.15018 26.092 1.39325C28.8126 0.121837 31.8416 -0.263207 34.7187 0.198627C36.2187 0.439965 37.6807 0.910574 39.0409 1.60497C40.9825 2.59665 42.6691 4.13683 43.9456 6.01268C45.3327 8.0498 46.2425 10.495 46.4683 13.062C46.6594 15.2296 46.3699 17.4839 45.4791 19.656C44.6665 18.9769 43.9623 18.2869 43.4281 17.7867C43.0961 17.4762 42.7742 17.1702 42.459 16.8685V16.8696Z" fill="#F7941D"/>
<path fill-rule="evenodd" clip-rule="evenodd" d="M40.3544 8.32953C39.2702 6.85956 38.3894 6.14432 36.9811 5.42579L39.0388 1.59509C40.9446 2.56812 42.6715 4.13134 43.9267 5.97428L40.3533 8.32953H40.3544Z" fill="#FCAF17"/>
<path fill-rule="evenodd" clip-rule="evenodd" d="M40.3544 8.32949C39.2702 6.85952 38.3894 6.14428 36.9811 5.42575L37.2829 4.86409L37.313 4.87945C38.6767 5.57604 39.8782 6.67851 40.806 8.0322L40.3555 8.32949H40.3544Z" fill="#F0A31F"/>
<path fill-rule="evenodd" clip-rule="evenodd" d="M42.0499 16.4768C42.3003 15.4522 42.3774 14.3805 42.2276 13.0937L46.3812 12.4147C46.7467 14.4924 46.5119 16.7895 45.7776 18.8858L45.5976 19.3641L45.1941 19.4146L43.9389 18.2704C43.7556 18.0971 43.5846 17.9347 43.4292 17.7888C42.9519 17.3412 42.4937 16.9046 42.0499 16.4779V16.4768Z" fill="#FCAF17"/>
<path fill-rule="evenodd" clip-rule="evenodd" d="M42.0499 16.4768C42.3003 15.4522 42.3774 14.3805 42.2276 13.0937L42.6915 13.018C42.7072 13.1431 42.7206 13.2692 42.7317 13.3954C42.8323 14.5352 42.753 15.7078 42.4601 16.8707C42.3215 16.739 42.1852 16.6074 42.051 16.4779L42.0499 16.4768Z" fill="#F0A31F"/>
<path fill-rule="evenodd" clip-rule="evenodd" d="M31.816 4.33641C30.1908 4.39784 28.8931 4.72365 27.5507 5.31273L25.3499 1.75628C27.2031 0.719627 29.4698 0.131639 31.7209 0L31.816 4.33641Z" fill="#FCAF17"/>
<path fill-rule="evenodd" clip-rule="evenodd" d="M31.816 4.33666C30.2735 4.39483 29.0261 4.69113 27.7564 5.22449C27.6502 5.19047 27.5429 5.15864 27.4367 5.12791L27.3059 4.91611C27.4356 4.84916 27.5663 4.78442 27.6982 4.72296C28.9982 4.11498 30.3964 3.78136 31.8037 3.71332L31.8171 4.33666H31.816Z" fill="#F0A31F"/>
<path opacity="0.18" fill-rule="evenodd" clip-rule="evenodd" d="M42.7194 17.1175V17.1153C43.1811 15.2262 43.1241 13.2692 42.6289 11.4932C42.1896 9.919 41.4061 8.4995 40.3364 7.41457C40.2202 7.29609 40.1006 7.18091 39.9776 7.06902C40.2649 7.30377 40.541 7.55389 40.8014 7.81826C41.8711 8.90209 42.6546 10.3227 43.0939 11.8969C43.5902 13.6729 43.646 15.6299 43.1855 17.519L43.1777 17.5519C43.0235 17.406 42.8703 17.2623 42.7194 17.1186V17.1175ZM22.5935 4.54594C25.0693 2.25981 27.9598 1.0213 30.8692 0.669168C33.8424 0.309355 36.8212 0.878693 39.3875 2.20167C40.4907 2.771 41.5201 3.47966 42.4422 4.31337C41.6442 3.65189 40.7746 3.08036 39.8536 2.60426C37.2884 1.28129 34.3085 0.710854 31.3353 1.07176C28.6002 1.40306 25.883 2.5165 23.51 4.54813H23.4318C23.1457 4.53826 22.8674 4.53826 22.5946 4.54594H22.5935Z" fill="white"/>
<path fill-rule="evenodd" clip-rule="evenodd" d="M51.3169 21.9991C53.871 19.8545 54.6456 16.8005 54.5573 13.3055C51.7294 17.8854 49.0736 19.3203 45.1504 19.3762C46.8661 20.8648 49.1418 22.4379 51.3169 21.9991Z" fill="url(#paint0_linear_1_156)"/>
<path fill-rule="evenodd" clip-rule="evenodd" d="M21.6636 13.2791C21.9564 14.5878 23.3938 16.1017 24.4534 17.1636C23.1535 16.4911 21.601 15.9306 19.5667 15.5949C16.6494 15.1133 14.5391 15.732 13.0123 16.8608C12.5205 15.9338 12.4847 14.9114 12.5216 13.8441C13.7198 11.2332 17.3324 11.389 21.6636 13.2791Z" fill="url(#paint1_linear_1_156)"/>
<path fill-rule="evenodd" clip-rule="evenodd" d="M51.3171 21.9991C43.9032 26.7962 36.354 23.0752 30.1349 18.5447C22.7321 12.6417 14.4609 9.61734 12.5205 13.844C12.7865 10.3249 15.639 4.29693 23.4296 4.54814C25.959 4.5624 28.4616 5.20743 31.0861 6.68947C34.7232 8.74303 37.8651 12.5715 43.4281 17.7877C45.0611 19.3191 48.2869 22.6101 51.3171 21.9991Z" fill="url(#paint2_linear_1_156)"/>
<path fill-rule="evenodd" clip-rule="evenodd" d="M51.3171 21.9991C51.1528 22.1055 50.9885 22.2064 50.8242 22.304C48.1528 22.4817 45.4881 19.8468 43.8864 18.2199C45.6178 19.8577 48.5485 22.5574 51.3171 21.9991ZM43.1073 24.215C38.5 23.9309 34.0537 21.399 30.1349 18.5446C22.7321 12.6417 14.4609 9.61731 12.5205 13.844C12.5496 13.4579 12.6099 13.0421 12.7049 12.6066C14.908 8.64757 22.9814 11.9583 30.1014 18.062C33.9821 21.105 38.4218 23.8354 43.1062 24.215H43.1073Z" fill="#0095DA"/>
<path fill-rule="evenodd" clip-rule="evenodd" d="M20.0897 21.9892C23.4586 23.638 28.4839 23.6544 31.8763 22.0539C27.6915 20.11 26.1333 16.6797 19.5667 15.5959C12.7138 14.4638 10.3096 19.408 9.4668 22.7615C12.2388 19.0185 15.9485 19.963 20.0909 21.9903L20.0897 21.9892Z" fill="#7BAA41"/>
<path fill-rule="evenodd" clip-rule="evenodd" d="M17.0137 36.4201H17.3591V34.62H18.0588V34.3172H16.3107V34.62H17.0137V36.4201ZM20.7436 36.4201V34.3172H20.4038V35.2354H19.2727V34.3172H18.9306V36.4201H19.2727V35.5469H20.4038V36.4201H20.7436ZM23.4128 36.0899H22.1743V35.5261H23.3546V35.2145H22.1743V34.6441H23.4027V34.3172H21.8312V36.4201H23.4116V36.0899H23.4128ZM26.2127 36.3598L25.5733 35.661C25.9947 35.6007 26.1546 35.3067 26.1546 35.0072C26.1546 34.6529 25.8952 34.3205 25.399 34.3205C25.0659 34.3205 24.7362 34.3172 24.402 34.3172V36.4201H24.744V35.6939H25.1967L25.8472 36.4201H26.2473L26.2105 36.3598H26.2127ZM25.4001 34.6254C25.6818 34.6254 25.8069 34.824 25.8069 35.0127C25.8069 35.2014 25.6818 35.3879 25.3979 35.3879H24.7462V34.6254H25.4001ZM29.0193 36.419H29.3613V34.3216H28.9634L28.2604 35.3045L27.554 34.3216H27.1561V36.419H27.4981V34.8108L28.2168 35.8025H28.2906L29.0182 34.8108V36.419H29.0193ZM32.1378 36.419H32.5011L31.5409 34.3161H31.1676L30.2075 36.419H30.5707L30.7719 35.978H31.9299L32.1344 36.419H32.1378ZM31.8081 35.672H30.9038L31.3565 34.6715L31.8092 35.672H31.8081ZM34.8494 34.6134C34.6695 34.3315 34.3599 34.259 34.0514 34.259C33.6657 34.259 33.2231 34.4269 33.2265 34.8624C33.2265 35.3122 33.63 35.4175 34.0547 35.4745C34.3543 35.514 34.6024 35.5919 34.6024 35.8201C34.6024 36.0844 34.3185 36.1678 34.0614 36.1678C33.8043 36.1678 33.5484 36.0779 33.3953 35.8234L33.1382 35.9912C33.3338 36.3455 33.649 36.4684 34.0581 36.4684C34.504 36.4684 34.9411 36.2918 34.9444 35.8201C34.9444 35.3495 34.5253 35.2288 34.086 35.1696C33.8043 35.1301 33.5663 35.073 33.5663 34.8701C33.5663 34.6671 33.7742 34.5519 34.0614 34.5519C34.285 34.5552 34.4895 34.6419 34.5901 34.7856L34.8494 34.6145V34.6134ZM38.1769 34.6254L38.8252 34.6233C39.3874 34.6233 39.3908 35.4657 38.8252 35.4657H38.1769V34.6254ZM38.8252 35.774C39.8491 35.7685 39.8457 34.3128 38.8252 34.3128C38.4977 34.3128 38.1624 34.3161 37.8349 34.3161V36.419H38.1769V35.774H38.8252ZM42.032 36.419H42.3953L41.4351 34.3161H41.0618L40.1017 36.419H40.4649L40.6661 35.978H41.8241L42.0286 36.419H42.032ZM41.7023 35.672H40.798L41.2507 34.6715L41.7034 35.672H41.7023ZM45.0532 36.3587L44.4139 35.6599C44.8353 35.5996 44.9951 35.3056 44.9951 35.0061C44.9951 34.6518 44.7358 34.3194 44.2406 34.3194C43.9075 34.3194 43.5778 34.3161 43.2436 34.3161V36.419H43.5856V35.6928H44.0383L44.6888 36.419H45.089L45.0521 36.3587H45.0532ZM44.2406 34.6243C44.5223 34.6243 44.6475 34.8229 44.6475 35.0116C44.6475 35.2003 44.5223 35.3868 44.2384 35.3868H43.5868V34.6243H44.2406ZM47.6374 34.315H47.2127L46.342 35.2222V34.315H45.9999V36.4179H46.342V35.4592L47.2954 36.4179H47.7235V36.3971L46.6572 35.3308L47.6386 34.3271V34.315H47.6374Z" fill="white"/>
<path fill-rule="evenodd" clip-rule="evenodd" d="M6.92623 26.261H5.78391L3.94076 30.5239L2.14233 26.261H1L3.29918 31.6593L3.34389 31.7492C3.37854 31.8096 3.45008 31.8699 3.55738 31.9291C3.6658 31.9895 3.79322 32.0191 3.94076 32.0191C4.07824 32.0191 4.20008 31.9851 4.30514 31.9171C4.41133 31.8491 4.47616 31.7953 4.50075 31.7558C4.52534 31.7152 4.5421 31.6834 4.55216 31.6582L6.92511 26.2599L6.92623 26.261ZM8.5436 26.261C8.44523 26.261 8.35358 26.2796 8.26751 26.3169C8.18145 26.3542 8.1155 26.3959 8.06856 26.4409C8.02161 26.4859 7.97802 26.5374 7.93555 26.5956C7.89419 26.6537 7.86848 26.6932 7.85842 26.7162C7.84836 26.7393 7.84166 26.7579 7.83607 26.7722L5.80179 32.0202H6.91505L7.37892 30.7795H9.73734L10.2168 32.0202H11.3301L9.22988 26.7645L9.16394 26.6361C9.12482 26.5561 9.04881 26.4727 8.93592 26.3882C8.82303 26.3027 8.69225 26.2599 8.54583 26.2599L8.5436 26.261ZM7.72541 29.8481L8.5436 27.5401L9.38413 29.8481H7.72541ZM12.7116 26.261H11.6062V31.1031C11.6062 31.249 11.6297 31.3763 11.6766 31.487C11.7236 31.5978 11.7917 31.6845 11.8834 31.7503C11.9739 31.815 12.0611 31.8677 12.1449 31.9083C12.2288 31.9489 12.3338 31.9763 12.4624 31.9906C12.5898 32.0059 12.6859 32.0147 12.7496 32.0169C12.8133 32.0191 12.8972 32.0202 13 32.0202H15.2701V31.1031H13.2806C13.0592 31.1031 12.9095 31.079 12.8312 31.0318C12.753 30.9846 12.7127 30.8705 12.7127 30.6895V26.261H12.7116ZM19.4292 27.1781V26.261H17.1591C17.0563 26.261 16.9724 26.2621 16.9087 26.2643C16.845 26.2665 16.7489 26.2752 16.6215 26.2906C16.494 26.306 16.3879 26.3334 16.304 26.3729C16.2202 26.4135 16.133 26.4661 16.0425 26.5308C15.9519 26.5956 15.8826 26.6833 15.8357 26.7941C15.7888 26.9049 15.7653 27.0322 15.7653 27.1781V31.1031C15.7653 31.249 15.7888 31.3763 15.8357 31.487C15.8826 31.5978 15.9508 31.6845 16.0425 31.7503C16.133 31.815 16.2202 31.8677 16.304 31.9083C16.3879 31.9489 16.4929 31.9763 16.6215 31.9906C16.7489 32.0059 16.845 32.0147 16.9087 32.0169C16.9724 32.0191 17.0563 32.0202 17.1591 32.0202H19.4292V31.1031H17.4397C17.2183 31.1031 17.0686 31.079 16.9903 31.0318C16.9121 30.9846 16.8718 30.8705 16.8718 30.6895V29.5991H19.2381V28.682H16.8718V27.5916C16.8718 27.4106 16.911 27.2976 16.9903 27.2494C17.0686 27.2022 17.2183 27.1781 17.4397 27.1781H19.4292ZM22.864 26.2226C22.7612 26.2226 22.6774 26.2237 22.6136 26.2259C22.5499 26.2281 22.4538 26.2368 22.3264 26.2522C22.199 26.2676 22.0928 26.295 22.009 26.3345C21.9251 26.3751 21.8379 26.4277 21.7474 26.4924C21.6569 26.5572 21.5876 26.6449 21.5406 26.7557C21.4937 26.8665 21.4702 26.9938 21.4702 27.1397V31.1393C21.4702 31.2852 21.4937 31.4124 21.5406 31.5232C21.5876 31.634 21.6557 31.7207 21.7474 31.7865C21.8379 31.8512 21.9251 31.9039 22.009 31.9445C22.0928 31.9851 22.1978 32.0125 22.3264 32.0268C22.4538 32.0421 22.5499 32.0509 22.6136 32.0531C22.6774 32.0553 22.7612 32.0564 22.864 32.0564C23.9739 32.0564 24.7787 31.8041 25.2783 31.3006C25.7768 30.797 26.0261 30.0763 26.0261 29.1384C26.0261 28.2005 25.7768 27.4808 25.2783 26.9762C24.7798 26.4727 23.975 26.2204 22.864 26.2204V26.2226ZM23.1446 27.1397C23.6364 27.1397 24.0421 27.3042 24.364 27.6322C24.6859 27.9602 24.8469 28.4626 24.8469 29.1395C24.8469 29.8163 24.6859 30.3188 24.364 30.6468C24.0421 30.9748 23.6353 31.1393 23.1446 31.1393C22.9233 31.1393 22.7735 31.1152 22.6952 31.068C22.617 31.0208 22.5768 30.9067 22.5768 30.7257V27.5521C22.5768 27.3722 22.6159 27.2581 22.6952 27.2099C22.7735 27.1627 22.9233 27.1386 23.1446 27.1386V27.1397ZM28.3812 26.2599C28.2828 26.2599 28.1911 26.2785 28.1051 26.3158C28.019 26.3531 27.9531 26.3948 27.9061 26.4398C27.8592 26.4848 27.8156 26.5363 27.7731 26.5945C27.7318 26.6526 27.706 26.6921 27.696 26.7151C27.6859 26.7382 27.6792 26.7568 27.6736 26.7711L25.6394 32.0191H26.7526L27.2165 30.7784H29.5749L30.0544 32.0191H31.1677L29.0675 26.7634L29.0015 26.6351C28.9624 26.555 28.8864 26.4716 28.7735 26.3871C28.6606 26.3016 28.5298 26.2588 28.3834 26.2588L28.3812 26.2599ZM27.563 29.847L28.3812 27.539L29.2217 29.847H27.563ZM35.3424 26.4486C34.5321 26.2577 33.8368 26.193 33.2567 26.2533C32.6766 26.3136 32.2385 26.5078 31.9411 26.8358C31.6438 27.1638 31.5365 27.5916 31.6204 28.1182C31.6651 28.399 31.8014 28.6425 32.0294 28.8477C32.2575 29.0528 32.5179 29.2152 32.8107 29.3326C33.1036 29.4499 33.3931 29.5596 33.6803 29.6595C33.9676 29.7593 34.2102 29.8789 34.4069 30.0171C34.6036 30.1553 34.702 30.3144 34.702 30.4943C34.702 30.7093 34.5812 30.8662 34.3409 30.9638C34.1006 31.0614 33.81 31.102 33.4713 31.0844C33.1327 31.0669 32.8063 31.0329 32.4944 30.9824C32.1826 30.932 31.9255 30.8716 31.7243 30.8025L31.37 31.6143C31.6014 31.7196 31.8819 31.8118 32.2139 31.8929C32.5458 31.973 32.9125 32.0257 33.316 32.0509C33.7183 32.0761 34.0961 32.0564 34.4471 31.9906C34.7981 31.9258 35.1066 31.7767 35.3726 31.543C35.6375 31.3104 35.7973 31 35.8521 30.6138C35.9013 30.288 35.8566 30.0028 35.7191 29.7571C35.5816 29.5114 35.3938 29.3238 35.1558 29.1932C34.9177 29.0627 34.6561 28.9409 34.3711 28.829C34.0861 28.716 33.8201 28.6206 33.5719 28.5438C33.3238 28.4659 33.1181 28.365 32.9561 28.2389C32.794 28.1127 32.7202 27.9679 32.7347 27.8023C32.7448 27.6673 32.7985 27.5543 32.8968 27.4644C32.9952 27.3744 33.1114 27.3075 33.2467 27.2647C33.3819 27.2219 33.5417 27.1923 33.7262 27.1748C33.9106 27.1572 34.076 27.1506 34.2236 27.1561C34.3711 27.1616 34.5265 27.1726 34.6919 27.1901C34.8562 27.2077 34.9657 27.2219 35.0194 27.2318C35.073 27.2417 35.1178 27.2494 35.1524 27.2549L35.3435 26.4508L35.3424 26.4486ZM40.8406 25.7114L41.6733 24.7866H40.4862L39.9553 25.7114H40.8394H40.8406ZM40.5086 26.2599C40.4102 26.2599 40.3186 26.2785 40.2325 26.3158C40.1464 26.3531 40.0805 26.3948 40.0336 26.4398C39.9866 26.4848 39.943 26.5363 39.9005 26.5945C39.8592 26.6526 39.8335 26.6921 39.8234 26.7151C39.8134 26.7382 39.8067 26.7568 39.8011 26.7711L37.7668 32.0191H38.88L39.3439 30.7784H41.7023L42.1818 32.0191H43.2951L41.1949 26.7634L41.1289 26.6351C41.0898 26.555 41.0138 26.4716 40.9009 26.3871C40.788 26.3016 40.6572 26.2588 40.5108 26.2588L40.5086 26.2599ZM39.6904 29.847L40.5086 27.539L41.3491 29.847H39.6904ZM45.6859 26.2149C45.3517 26.2149 45.0388 26.2709 44.7459 26.3838C44.4531 26.4968 44.2005 26.6482 43.987 26.8391C43.7735 27.03 43.5902 27.2505 43.4382 27.5006C43.2862 27.7507 43.1721 28.0162 43.095 28.2937C43.019 28.5723 42.981 28.8543 42.981 29.1395C42.981 30.0664 43.2549 30.785 43.8026 31.294C44.3502 31.803 45.0466 32.0575 45.8916 32.0575C46.285 32.0575 46.6226 31.9862 46.9054 31.8436C47.1882 31.701 47.329 31.4739 47.329 31.1634V29.1406H46.3935V30.8771C46.3935 31.068 46.2336 31.1623 45.914 31.1623C45.3931 31.1623 44.9583 30.9934 44.6096 30.6544C44.2608 30.3166 44.0865 29.8108 44.0865 29.1395C44.0865 28.4681 44.2608 27.9547 44.6096 27.6169C44.9583 27.279 45.3931 27.109 45.914 27.109C46.2828 27.109 46.6584 27.1737 47.0418 27.3042L47.329 26.7853C46.8037 26.4047 46.2549 26.2138 45.6859 26.2138V26.2149ZM52.7869 26.2599H51.6815V29.8394C51.6815 30.1904 51.5697 30.4745 51.3461 30.6928C51.1226 30.9111 50.7772 31.0197 50.3111 31.0197C49.845 31.0197 49.4974 30.9111 49.2716 30.6928C49.0458 30.4745 48.933 30.1904 48.933 29.8394V26.2599H47.8275V29.9216C47.8275 30.593 48.0533 31.1108 48.506 31.4739C48.9576 31.837 49.56 32.0191 50.3122 32.0191C51.0645 32.0191 51.6647 31.837 52.114 31.4739C52.5634 31.1108 52.788 30.593 52.788 29.9216V26.2599H52.7869ZM55.5097 26.2599C55.4114 26.2599 55.3197 26.2785 55.2336 26.3158C55.1476 26.3531 55.0816 26.3948 55.0347 26.4398C54.9877 26.4848 54.9441 26.5363 54.9017 26.5945C54.8603 26.6526 54.8346 26.6921 54.8245 26.7151C54.8145 26.7382 54.8078 26.7568 54.8022 26.7711L52.7679 32.0191H53.8812L54.345 30.7784H56.7035L57.183 32.0191H58.2962L56.196 26.7634L56.1301 26.6351C56.0909 26.555 56.0149 26.4716 55.902 26.3871C55.7891 26.3016 55.6584 26.2588 55.512 26.2588L55.5097 26.2599ZM54.6915 29.847L55.5097 27.539L56.3503 29.847H54.6915ZM62.471 26.4486C61.6606 26.2577 60.9654 26.193 60.3853 26.2533C59.8052 26.3136 59.367 26.5078 59.0697 26.8358C58.7724 27.1638 58.6651 27.5916 58.7489 28.1182C58.7936 28.399 58.93 28.6425 59.158 28.8477C59.386 29.0528 59.6465 29.2152 59.9393 29.3326C60.2321 29.4499 60.5216 29.5596 60.8089 29.6595C61.0962 29.7593 61.3387 29.8789 61.5354 30.0171C61.7322 30.1553 61.8305 30.3144 61.8305 30.4943C61.8305 30.7093 61.7098 30.8662 61.4695 30.9638C61.2292 31.0614 60.9386 31.102 60.5999 31.0844C60.2612 31.0669 59.9348 31.0329 59.623 30.9824C59.3111 30.932 59.0541 30.8716 58.8529 30.8025L58.4985 31.6143C58.7299 31.7196 59.0105 31.8118 59.3424 31.8929C59.6744 31.973 60.041 32.0257 60.4445 32.0509C60.8469 32.0761 61.2247 32.0564 61.5757 31.9906C61.9266 31.9258 62.2351 31.7767 62.5011 31.543C62.766 31.3104 62.9259 31 62.9807 30.6138C63.0298 30.288 62.9851 30.0028 62.8476 29.7571C62.7102 29.5114 62.5224 29.3238 62.2843 29.1932C62.0462 29.0627 61.7847 28.9409 61.4997 28.829C61.2146 28.716 60.9486 28.6206 60.7005 28.5438C60.4523 28.4659 60.2467 28.365 60.0846 28.2389C59.9225 28.1138 59.8488 27.9679 59.8633 27.8023C59.8734 27.6673 59.927 27.5543 60.0254 27.4644C60.1237 27.3744 60.24 27.3075 60.3752 27.2647C60.5105 27.2219 60.6703 27.1923 60.8547 27.1748C61.0392 27.1572 61.2046 27.1506 61.3521 27.1561C61.4997 27.1616 61.655 27.1726 61.8204 27.1901C61.9848 27.2077 62.0943 27.2219 62.1479 27.2318C62.2016 27.2417 62.2463 27.2494 62.281 27.2549L62.4721 26.4508L62.471 26.4486Z" fill="white" stroke="#0061AF" stroke-width="0.33" stroke-miterlimit="22.93"/>
<path fill-rule="evenodd" clip-rule="evenodd" d="M55.5209 30.7805V29.8481H56.3503L55.5209 27.5696V26.2609C55.664 26.2631 55.7903 26.3059 55.9009 26.3882C56.0138 26.4737 56.0898 26.556 56.1289 26.6361L56.1949 26.7644L58.2951 32.0201H57.1818L56.7023 30.7794H55.5198L55.5209 30.7805ZM62.471 26.4496C61.6606 26.2587 60.9654 26.194 60.3853 26.2543C59.8052 26.3147 59.367 26.5088 59.0697 26.8368C58.7724 27.1648 58.6651 27.5927 58.7489 28.1192C58.7936 28.4001 58.93 28.6436 59.158 28.8487C59.386 29.0539 59.6465 29.2162 59.9393 29.3336C60.2321 29.451 60.5216 29.5607 60.8089 29.6605C61.0962 29.7603 61.3387 29.8799 61.5354 30.0181C61.7322 30.1563 61.8305 30.3154 61.8305 30.4953C61.8305 30.7103 61.7098 30.8672 61.4695 30.9648C61.2292 31.0625 60.9386 31.103 60.5999 31.0855C60.2612 31.0679 59.9348 31.0339 59.623 30.9835C59.3111 30.933 59.0541 30.8727 58.8529 30.8036L58.4985 31.6153C58.7299 31.7207 59.0105 31.8128 59.3424 31.894C59.6744 31.9741 60.041 32.0267 60.4445 32.0519C60.8469 32.0772 61.2247 32.0574 61.5757 31.9916C61.9266 31.9269 62.2351 31.7777 62.5011 31.544C62.766 31.3115 62.9259 31.001 62.9807 30.6149C63.0298 30.2891 62.9851 30.0039 62.8476 29.7581C62.7102 29.5124 62.5224 29.3248 62.2843 29.1943C62.0462 29.0637 61.7847 28.942 61.4997 28.8301C61.2146 28.7171 60.9486 28.6217 60.7005 28.5449C60.4523 28.467 60.2467 28.3661 60.0846 28.2399C59.9225 28.1148 59.8488 27.9689 59.8633 27.8033C59.8734 27.6684 59.927 27.5554 60.0254 27.4654C60.1237 27.3755 60.24 27.3086 60.3752 27.2658C60.5105 27.223 60.6703 27.1934 60.8547 27.1758C61.0392 27.1583 61.2046 27.1517 61.3521 27.1572C61.4997 27.1627 61.655 27.1736 61.8204 27.1912C61.9848 27.2087 62.0943 27.223 62.1479 27.2329C62.2016 27.2427 62.2463 27.2504 62.281 27.2559L62.4721 26.4518L62.471 26.4496ZM55.5209 26.262V27.5707L55.5097 27.54L54.6915 29.8481H55.5209V30.7805H54.345L53.8812 32.0212H52.778V31.9971L54.8033 26.7732C54.8078 26.7579 54.8156 26.7392 54.8257 26.7173C54.8357 26.6942 54.8614 26.6547 54.9028 26.5966C54.9441 26.5385 54.9888 26.488 55.0358 26.4419C55.0827 26.397 55.1487 26.3553 55.2348 26.318C55.3208 26.2807 55.4125 26.262 55.5108 26.262H55.522H55.5209ZM52.7769 30.1531V26.2609H52.7858V29.9227C52.7858 30.0017 52.7824 30.0785 52.7769 30.152V30.1531ZM52.7769 26.2609V30.1531C52.7299 30.7147 52.5086 31.1557 52.1118 31.476C51.6625 31.8391 51.0611 32.0212 50.31 32.0212C49.5589 32.0212 48.9564 31.8391 48.5037 31.476C48.0522 31.1129 47.8253 30.5951 47.8253 29.9238V26.262H48.9307V29.8415C48.9307 30.1925 49.0436 30.4767 49.2694 30.695C49.4952 30.9133 49.8417 31.0219 50.3089 31.0219C50.7761 31.0219 51.1204 30.9133 51.3439 30.695C51.5675 30.4767 51.6792 30.1925 51.6792 29.8415V26.262H52.7757L52.7769 26.2609ZM52.7769 31.996V32.0201H52.7679L52.7769 31.996ZM43.1364 32.0201V31.6285L43.2929 32.0201H43.1364ZM43.1364 30.2353V28.1532C43.2102 27.9262 43.3108 27.709 43.4371 27.5016C43.5891 27.2515 43.7724 27.0299 43.9859 26.8401C44.1993 26.6493 44.4531 26.4979 44.7448 26.3849C45.0377 26.2719 45.3506 26.2159 45.6848 26.2159C46.2549 26.2159 46.8026 26.4068 47.3279 26.7875L47.0406 27.3064C46.6572 27.1758 46.2817 27.1111 45.9128 27.1111C45.392 27.1111 44.9572 27.28 44.6084 27.619C44.2597 27.9569 44.0853 28.4648 44.0853 29.1416C44.0853 29.8185 44.2597 30.3187 44.6084 30.6566C44.9572 30.9944 45.392 31.1645 45.9128 31.1645C46.2325 31.1645 46.3923 31.069 46.3923 30.8793V29.1427H47.3279V31.1656C47.3279 31.476 47.1871 31.7031 46.9043 31.8457C46.6215 31.9883 46.2839 32.0596 45.8905 32.0596C45.0455 32.0596 44.3491 31.8051 43.8014 31.2961C43.4929 31.0098 43.2716 30.6566 43.1364 30.2364V30.2353ZM43.1364 28.1532V30.2353C43.0324 29.9106 42.9799 29.5453 42.9799 29.1405C42.9799 28.8553 43.0179 28.5723 43.0939 28.2947C43.1073 28.2476 43.1207 28.2004 43.1364 28.1532ZM43.1364 31.6285V32.0201H42.1807L41.7012 30.7794H40.5187V29.847H41.348L40.5187 27.5685V26.2598C40.6617 26.262 40.788 26.3048 40.8987 26.3871C41.0116 26.4726 41.0876 26.5549 41.1267 26.635L41.1926 26.7633L43.1364 31.6274V31.6285ZM40.5187 25.7124V24.7877H41.6722L40.8394 25.7124H40.5187ZM40.5187 24.7877V25.7124H39.9553L40.4862 24.7877H40.5198H40.5187ZM40.5187 26.262V27.5707L40.5075 27.54L39.6893 29.8481H40.5187V30.7805H39.3428L38.8789 32.0212H37.7657L39.7999 26.7732C39.8044 26.7579 39.8122 26.7392 39.8223 26.7173C39.8324 26.6942 39.8581 26.6547 39.8994 26.5966C39.9408 26.5385 39.9855 26.488 40.0324 26.4419C40.0794 26.397 40.1453 26.3553 40.2314 26.318C40.3175 26.2807 40.4091 26.262 40.5075 26.262H40.5187ZM28.3912 30.7805V29.8481H29.2206L28.3912 27.5696V26.2609C28.5343 26.2631 28.6606 26.3059 28.7713 26.3882C28.8841 26.4737 28.9601 26.556 28.9993 26.6361L29.0652 26.7644L31.1654 32.0201H30.0522L29.5727 30.7794H28.3901L28.3912 30.7805ZM35.3413 26.4496C34.5309 26.2587 33.8357 26.194 33.2556 26.2543C32.6755 26.3147 32.2373 26.5088 31.94 26.8368C31.6427 27.1648 31.5354 27.5927 31.6192 28.1192C31.6639 28.4001 31.8003 28.6436 32.0283 28.8487C32.2563 29.0539 32.5168 29.2162 32.8096 29.3336C33.1025 29.451 33.392 29.5607 33.6792 29.6605C33.9665 29.7603 34.209 29.8799 34.4058 30.0181C34.6025 30.1563 34.7008 30.3154 34.7008 30.4953C34.7008 30.7103 34.5801 30.8672 34.3398 30.9648C34.0995 31.0625 33.8089 31.103 33.4702 31.0855C33.1315 31.0679 32.8052 31.0339 32.4933 30.9835C32.1815 30.933 31.9244 30.8727 31.7232 30.8036L31.3689 31.6153C31.6002 31.7207 31.8808 31.8128 32.2128 31.894C32.5447 31.9741 32.9113 32.0267 33.3148 32.0519C33.7172 32.0772 34.095 32.0574 34.446 31.9916C34.797 31.9269 35.1055 31.7777 35.3715 31.544C35.6364 31.3115 35.7962 31.001 35.851 30.6149C35.9002 30.2891 35.8555 30.0039 35.718 29.7581C35.5805 29.5124 35.3927 29.3248 35.1546 29.1943C34.9166 29.0637 34.655 28.942 34.37 28.8301C34.085 28.7171 33.8189 28.6217 33.5708 28.5449C33.3227 28.467 33.117 28.3661 32.9549 28.2399C32.7929 28.1137 32.7191 27.9689 32.7336 27.8033C32.7437 27.6684 32.7973 27.5554 32.8957 27.4654C32.9941 27.3755 33.1103 27.3086 33.2455 27.2658C33.3808 27.223 33.5406 27.1934 33.7251 27.1758C33.9095 27.1583 34.0749 27.1517 34.2224 27.1572C34.37 27.1627 34.5254 27.1736 34.6908 27.1912C34.8551 27.2087 34.9646 27.223 35.0183 27.2329C35.0719 27.2427 35.1166 27.2504 35.1513 27.2559L35.3424 26.4518L35.3413 26.4496ZM28.3912 26.262V27.5707L28.38 27.54L27.5619 29.8481H28.3912V30.7805H27.2154L26.7515 32.0212H25.8316V31.5221L27.6725 26.7732C27.677 26.7579 27.6848 26.7392 27.6949 26.7173C27.7049 26.6942 27.7306 26.6547 27.772 26.5966C27.8134 26.5385 27.8581 26.488 27.905 26.4419C27.952 26.397 28.0179 26.3553 28.104 26.318C28.19 26.2807 28.2817 26.262 28.38 26.262H28.3912ZM25.8316 30.4043V27.8801C25.9601 28.2443 26.025 28.6655 26.025 29.1416C26.025 29.6177 25.9601 30.039 25.8316 30.4032V30.4043ZM25.8316 27.8801V30.4043C25.7064 30.7564 25.522 31.0559 25.2772 31.3038C24.9162 31.6691 24.3942 31.9017 23.7113 32.0026V31.0581C23.9583 30.978 24.1751 30.842 24.364 30.65C24.6859 30.322 24.8469 29.8196 24.8469 29.1427C24.8469 28.4659 24.6859 27.9635 24.364 27.6355C24.1751 27.4435 23.9583 27.3075 23.7113 27.2274V26.2829C24.3942 26.3838 24.9162 26.6164 25.2772 26.9817C25.522 27.2296 25.7075 27.529 25.8316 27.8812V27.8801ZM25.8316 31.5221V32.0212H25.6382L25.8316 31.5221ZM23.7113 26.2818V27.2263C23.5369 27.1703 23.348 27.1418 23.1435 27.1418C22.9221 27.1418 22.7724 27.1659 22.6941 27.2131C22.6159 27.2603 22.5756 27.3744 22.5756 27.5554V30.729C22.5756 30.91 22.6148 31.023 22.6941 31.0712C22.7724 31.1184 22.9221 31.1425 23.1435 31.1425C23.3469 31.1425 23.5369 31.114 23.7113 31.0581V32.0026C23.4519 32.041 23.1692 32.0596 22.864 32.0596C22.7612 32.0596 22.6774 32.0585 22.6136 32.0563C22.5499 32.0541 22.4538 32.0454 22.3264 32.03C22.199 32.0146 22.0928 31.9872 22.009 31.9477C21.9251 31.9071 21.8379 31.8545 21.7474 31.7898C21.6569 31.725 21.5876 31.6373 21.5406 31.5265C21.4937 31.4157 21.4702 31.2884 21.4702 31.1425V27.1429C21.4702 26.997 21.4937 26.8698 21.5406 26.759C21.5876 26.6482 21.6557 26.5615 21.7474 26.4957C21.8379 26.431 21.9251 26.3783 22.009 26.3377C22.0928 26.2971 22.1978 26.2697 22.3264 26.2554C22.4538 26.2401 22.5499 26.2313 22.6136 26.2291C22.6774 26.2269 22.7612 26.2258 22.864 26.2258C23.1703 26.2258 23.4519 26.2445 23.7113 26.2829V26.2818ZM8.55477 30.7805V29.8481H9.38413L8.55477 27.5696V26.2609C8.69784 26.2631 8.82415 26.3059 8.9348 26.3882C9.04769 26.4737 9.1237 26.556 9.16282 26.6361L9.22877 26.7644L11.329 32.0201H10.2157L9.73622 30.7794H8.55366L8.55477 30.7805ZM12.7116 26.262H11.6062V31.1041C11.6062 31.25 11.6297 31.3773 11.6766 31.4881C11.7236 31.5989 11.7917 31.6856 11.8834 31.7514C11.9739 31.8161 12.0611 31.8687 12.1449 31.9093C12.2288 31.9499 12.3338 31.9774 12.4624 31.9916C12.5898 32.007 12.6859 32.0157 12.7496 32.0179C12.8133 32.0201 12.8972 32.0212 13 32.0212H15.2701V31.1041H13.2806C13.0592 31.1041 12.9095 31.08 12.8312 31.0328C12.753 30.9857 12.7127 30.8716 12.7127 30.6906V26.262H12.7116ZM19.4292 27.1791V26.262H17.1591C17.0563 26.262 16.9724 26.2631 16.9087 26.2653C16.845 26.2675 16.7489 26.2763 16.6215 26.2916C16.494 26.307 16.3879 26.3344 16.304 26.3739C16.2202 26.4145 16.133 26.4672 16.0425 26.5319C15.9519 26.5966 15.8826 26.6844 15.8357 26.7952C15.7888 26.906 15.7653 27.0332 15.7653 27.1791V31.1041C15.7653 31.25 15.7888 31.3773 15.8357 31.4881C15.8826 31.5989 15.9508 31.6856 16.0425 31.7514C16.133 31.8161 16.2202 31.8687 16.304 31.9093C16.3879 31.9499 16.4929 31.9774 16.6215 31.9916C16.7489 32.007 16.845 32.0157 16.9087 32.0179C16.9724 32.0201 17.0563 32.0212 17.1591 32.0212H19.4292V31.1041H17.4397C17.2183 31.1041 17.0686 31.08 16.9903 31.0328C16.9121 30.9857 16.8718 30.8716 16.8718 30.6906V29.6002H19.2381V28.6831H16.8718V27.5927C16.8718 27.4117 16.911 27.2987 16.9903 27.2504C17.0686 27.2032 17.2183 27.1791 17.4397 27.1791H19.4292ZM6.92623 26.262H6.36401V27.5411L6.92623 26.262ZM8.55477 26.262V27.5707L8.5436 27.54L7.72541 29.8481H8.55477V30.7805H7.37892L6.91505 32.0212H6.36401V30.571L7.83607 26.7732C7.84054 26.7579 7.84836 26.7392 7.85842 26.7173C7.86848 26.6942 7.89419 26.6547 7.93555 26.5966C7.9769 26.5385 8.02161 26.488 8.06856 26.4419C8.1155 26.397 8.18145 26.3553 8.26751 26.318C8.35358 26.2807 8.44523 26.262 8.5436 26.262H8.55477ZM6.36401 26.262H5.78391L3.94076 30.5249L2.14233 26.262H1L3.29918 31.6603L3.34389 31.7503C3.37854 31.8106 3.45008 31.8709 3.55738 31.9302C3.6658 31.9905 3.79322 32.0201 3.94076 32.0201C4.07824 32.0201 4.20008 31.9861 4.30514 31.9181C4.41133 31.8501 4.47616 31.7963 4.50075 31.7569C4.52534 31.7163 4.5421 31.6845 4.55216 31.6592L6.36289 27.5389V26.2598L6.36401 26.262ZM6.36401 30.571V32.0212H5.80179L6.36401 30.571Z" fill="white"/>
<defs>
<linearGradient id="paint0_linear_1_156" x1="50.4194" y1="13.4086" x2="49.2062" y2="21.9529" gradientUnits="userSpaceOnUse">
<stop stop-color="#1E74BB"/>
<stop offset="0.2" stop-color="#0078B8"/>
<stop offset="1" stop-color="#0050A4"/>
</linearGradient>
<linearGradient id="paint1_linear_1_156" x1="17.4229" y1="17.7834" x2="19.8034" y2="12.4884" gradientUnits="userSpaceOnUse">
<stop stop-color="#1E74BB"/>
<stop offset="0.23" stop-color="#236EAF"/>
<stop offset="0.65" stop-color="#0B519B"/>
<stop offset="1" stop-color="#0050A4"/>
</linearGradient>
<linearGradient id="paint2_linear_1_156" x1="51.3171" y1="14.3914" x2="12.5216" y2="14.3914" gradientUnits="userSpaceOnUse">
<stop stop-color="#1E74BB"/>
<stop offset="0.52" stop-color="#00A1E4"/>
<stop offset="1" stop-color="#1E74BB"/>
</linearGradient>
</defs>
</svg>
