<svg width="10" height="19" viewBox="0 0 10 19" fill="none" xmlns="http://www.w3.org/2000/svg">
<path d="M9.63735 0.356818C9.84994 0.461243 9.9208 0.646888 9.90899 0.878944C9.90899 1.69114 9.90899 2.50334 9.90899 3.32714C9.90899 3.72163 9.77908 3.84926 9.37752 3.84926C8.79881 3.84926 8.22009 3.84926 7.64138 3.87247C6.9918 3.89568 6.66111 4.19735 6.63749 4.8355C6.61387 5.48526 6.63749 6.14662 6.63749 6.83119H9.31847C9.66097 6.83119 9.79089 6.95882 9.79089 7.2953C9.79089 8.22353 9.79089 9.15175 9.79089 10.0684C9.79089 10.3933 9.66097 10.5209 9.31847 10.5209C8.49173 10.5209 7.67681 10.5209 6.85008 10.5209H6.62568V10.7297C6.62568 13.0967 6.62568 15.4637 6.62568 17.8307C6.62568 18.2368 6.50758 18.3528 6.09421 18.3528H3.2715C2.88176 18.3528 2.76365 18.2368 2.76365 17.8539C2.76365 15.4869 2.76365 13.1315 2.76365 10.7645V10.5093H2.56287C1.86606 10.5093 1.18105 10.5093 0.484232 10.5093C0.129917 10.5093 0 10.3816 0 10.0336C0 9.11694 0 8.21192 0 7.2953C0 6.94722 0.141728 6.81958 0.484232 6.81958H2.76365C2.76365 6.74997 2.76365 6.68035 2.76365 6.62234C2.76365 5.87976 2.74003 5.14878 2.77546 4.4062C2.83451 3.22271 3.23607 2.17846 4.15729 1.36626C4.81868 0.786122 5.60998 0.496051 6.48395 0.380023C6.5312 0.380023 6.57844 0.356818 6.63749 0.345215H9.64916L9.63735 0.356818Z" fill="white"/>
</svg>
