<svg width="18" height="19" viewBox="0 0 18 19" fill="none" xmlns="http://www.w3.org/2000/svg">
<path d="M13.6892 5.71743C13.0868 5.71743 12.6262 5.25331 12.6262 4.66157C12.6262 4.08143 13.1105 3.60571 13.701 3.60571C14.2915 3.60571 14.7757 4.09303 14.7757 4.66157C14.7757 5.24171 14.2915 5.70582 13.6892 5.70582" fill="white"/>
<path d="M6.03601 0.577393H11.7523C11.9176 0.588995 12.0712 0.600598 12.2365 0.612201C12.8507 0.681818 13.4766 0.693421 14.0789 0.832655C15.5553 1.15753 16.6418 2.00454 17.2796 3.36207C17.6929 4.22068 17.8111 5.1489 17.8111 6.08873C17.8111 8.20044 17.8229 10.3238 17.8111 12.4471C17.8111 13.0388 17.7638 13.6538 17.6339 14.2339C17.1969 16.2412 15.9332 17.4711 13.9018 17.9236C13.0278 18.1208 12.142 18.1092 11.2444 18.1208C9.69726 18.1325 8.13827 18.1325 6.5911 18.1208C5.69351 18.1208 4.79591 18.1208 3.92193 17.9236C1.91415 17.4711 0.662244 16.2528 0.201635 14.2687C0.0244779 13.4217 0.0244779 12.5631 0.000856995 11.7045C0.000856995 10.4514 0.000856995 9.18668 0.000856995 7.92197C0.000856995 6.8081 -0.0227639 5.69423 0.178014 4.59197C0.378792 3.4897 0.874832 2.54987 1.74881 1.80729C2.65821 1.04151 3.73297 0.739832 4.9022 0.647009C5.28014 0.623804 5.65807 0.600598 6.0242 0.577393M8.92958 16.5661C8.92958 16.5661 8.92958 16.5429 8.92958 16.5313C9.57915 16.5313 10.2169 16.5429 10.8665 16.5313C11.7641 16.5081 12.6617 16.5429 13.5357 16.3688C14.8112 16.1136 15.6497 15.3826 16.0041 14.1411C16.1694 13.5725 16.193 12.9808 16.2048 12.4007C16.2166 10.637 16.2285 8.8734 16.2166 7.10978C16.2166 6.35559 16.2166 5.60141 16.0631 4.85883C15.8033 3.57092 15.0474 2.72391 13.7364 2.39903C12.9924 2.21339 12.2247 2.21339 11.4688 2.20179C10.087 2.17858 8.70518 2.19018 7.32335 2.20179C6.34308 2.20179 5.36281 2.17858 4.40616 2.34102C3.07158 2.57308 2.18579 3.31566 1.83148 4.62677C1.66613 5.25333 1.64251 5.90308 1.64251 6.54124C1.6307 8.4209 1.6307 10.3122 1.64251 12.1918C1.64251 12.7371 1.70157 13.2941 1.78424 13.8394C1.92596 14.7096 2.35114 15.429 3.11882 15.9163C3.70935 16.2992 4.39435 16.45 5.07936 16.4732C6.3667 16.5197 7.64223 16.5429 8.92958 16.5661Z" fill="white"/>
<path d="M8.92953 4.83569C11.457 4.83569 13.5356 6.87779 13.5238 9.36079C13.5238 11.8438 11.457 13.8627 8.92953 13.8743C6.40209 13.8743 4.32344 11.8322 4.33526 9.34919C4.33526 6.86619 6.40209 4.8473 8.92953 4.83569ZM5.9651 9.34919C5.9651 10.962 7.28787 12.2615 8.92953 12.2615C10.5712 12.2615 11.894 10.962 11.9058 9.34919C11.9058 7.72479 10.583 6.42528 8.92953 6.42528C7.28787 6.42528 5.9651 7.72479 5.9651 9.33758" fill="white"/>
</svg>
