<svg width="163" height="97" viewBox="0 0 163 97" fill="none" xmlns="http://www.w3.org/2000/svg">
<path fill-rule="evenodd" clip-rule="evenodd" d="M125.594 49.7789C126.631 46.4821 126.89 43.442 126.553 40.7083C126.111 37.1227 124.643 34.0417 122.565 31.6027C120.457 29.1286 117.734 27.2993 114.813 26.249C112.223 25.3183 109.496 25.012 106.935 25.4263C105.069 25.7268 103.253 26.3307 101.555 27.1943C99.3634 28.3088 97.381 29.8463 95.7474 31.7223C94.233 30.1994 92.7826 28.761 91.3728 27.4131C93.5092 25.0324 96.0672 23.0777 98.8692 21.6539C101.163 20.4898 103.622 19.6729 106.159 19.2615C109.778 18.6751 113.577 19.0894 117.135 20.3673C121.001 21.7531 124.599 24.1688 127.378 27.4335C130.186 30.7304 132.169 34.8791 132.762 39.6959C132.971 41.3968 133.009 43.1795 132.849 45.035C130.544 47.2173 128.16 48.7519 125.591 49.7818L125.594 49.7789Z" fill="#C81B77"/>
<path fill-rule="evenodd" clip-rule="evenodd" d="M126.936 49.1837C127.73 46.1086 127.87 43.2465 127.497 40.6412C126.966 36.8951 125.378 33.6537 123.175 31.0658C120.94 28.443 118.077 26.4795 115.025 25.3241C112.321 24.303 109.485 23.9237 106.839 24.303C104.909 24.5802 103.037 25.1695 101.296 26.036C98.9012 27.2234 96.7589 28.9214 95.0469 31.0162C93.4307 29.397 91.8844 27.8799 90.3816 26.4678C92.6169 23.842 95.3608 21.7122 98.4012 20.2039C100.756 19.0368 103.29 18.2345 105.915 17.8611C109.659 17.3243 113.606 17.8348 117.321 19.2411C121.358 20.7669 125.14 23.3606 128.09 26.8179C131.07 30.3131 133.209 34.6806 133.924 39.7134C134.107 41 134.197 42.3275 134.183 43.6929C131.866 46.1699 129.489 47.9525 126.939 49.1866L126.936 49.1837Z" fill="#E9008A"/>
<path fill-rule="evenodd" clip-rule="evenodd" d="M114.647 26.1904C111.618 25.1722 109.647 25.0351 106.932 25.4261L105.897 17.8463C109.572 17.3212 113.6 17.82 117.251 19.2L114.647 26.1904Z" fill="#F287B4"/>
<path fill-rule="evenodd" clip-rule="evenodd" d="M126.006 38.0184C125.3 35.5619 124.216 33.4291 122.158 31.1447L127.297 25.9749C129.939 28.5919 131.965 32.1279 133.081 35.8799L126.006 38.0213V38.0184Z" fill="#F287B4"/>
<path fill-rule="evenodd" clip-rule="evenodd" d="M126.006 38.018C125.3 35.5615 124.216 33.4287 122.158 31.1443L122.731 30.5667C122.882 30.73 123.027 30.8992 123.172 31.0685C124.791 32.9678 126.076 35.2172 126.855 37.7613L126.004 38.018H126.006Z" fill="#DB669A"/>
<path fill-rule="evenodd" clip-rule="evenodd" d="M98.5613 29.0763C97.4654 29.9311 96.5469 30.7947 95.7446 31.7195C93.8698 29.8319 92.0938 28.0785 90.3701 26.4592C91.4601 25.1872 92.681 24.0027 93.9832 22.9436L98.5613 29.0763Z" fill="#F287B4"/>
<path fill-rule="evenodd" clip-rule="evenodd" d="M98.5611 29.0762C97.4653 29.931 96.5467 30.7946 95.7445 31.7195C95.5091 31.4831 95.2765 31.2497 95.0469 31.0193C95.8985 29.9748 96.8607 29.0295 97.9042 28.198L98.5611 29.0791V29.0762Z" fill="#DB669A"/>
<path opacity="0.18" fill-rule="evenodd" clip-rule="evenodd" d="M127.567 48.8688C127.771 48.1802 127.933 47.4975 128.055 46.8178C128.727 43.1154 128.244 39.5589 126.974 36.4255C125.686 33.2483 123.599 30.4913 121.082 28.4432C118.853 26.6255 116.295 25.3768 113.682 24.9013C113.397 24.8488 113.109 24.805 112.824 24.7671C113.469 24.8137 114.112 24.8954 114.748 25.0121C117.362 25.4906 119.919 26.7393 122.149 28.554C124.666 30.605 126.75 33.3592 128.041 36.5364C129.311 39.6727 129.794 43.2292 129.122 46.9286C129.049 47.3283 128.965 47.728 128.863 48.1306C128.436 48.3961 128.003 48.6412 127.567 48.8717V48.8688ZM128.326 60.5914L128.48 60.7169C128.358 60.8715 128.236 61.0261 128.114 61.1778L127.75 60.8832C127.942 60.7869 128.134 60.6906 128.326 60.5914ZM91.1633 27.212C91.3784 27.4191 91.5964 27.6262 91.8173 27.8392C92.6516 26.7685 93.5643 25.7794 94.5409 24.8779C98.3487 21.3594 103.116 19.1683 108.078 18.4798C109.859 18.2318 111.664 18.1764 113.464 18.3193C111.313 18.0509 109.141 18.0742 107.008 18.3689C102.049 19.0575 97.2791 21.2485 93.4713 24.7671C92.6545 25.5227 91.8813 26.3396 91.1633 27.212Z" fill="white"/>
<path fill-rule="evenodd" clip-rule="evenodd" d="M107.741 43.8094C108.366 41.1048 108.534 38.3857 108.307 35.7395C107.889 30.8585 106.154 26.2225 103.494 22.3685C101.137 18.952 98.0671 16.1775 94.5732 14.4328C92.0241 13.1607 89.2743 12.3001 86.4432 11.8624C81.1413 11.0426 75.5895 11.702 70.5725 13.8959C66.7996 12.6852 63.0761 12.1192 59.3293 12.0958C58.3468 12.0637 57.3992 12.0725 56.4778 12.1133C59.3613 9.47297 62.5761 7.37234 65.9828 5.79396C72.9356 2.57884 80.6646 1.58105 88.0012 2.71305C91.8235 3.30239 95.5499 4.4694 99.0118 6.1995C103.953 8.66773 108.241 12.516 111.479 17.2073C114.996 22.3043 117.292 28.4282 117.844 34.8672C118.304 40.2091 117.577 45.7641 115.374 51.1353C113.804 49.7174 112.432 48.3549 111.336 47.3046C110.092 46.1113 108.895 44.9472 107.738 43.8065L107.741 43.8094ZM53.9461 34.9722C53.8647 34.9372 53.7833 34.9022 53.7048 34.8672L53.949 34.9722H53.9461ZM44.8335 32.0371C47.2548 32.504 49.8825 33.3179 52.6438 34.4295C49.8825 33.315 47.2548 32.504 44.8335 32.0371Z" fill="#E78625"/>
<path fill-rule="evenodd" clip-rule="evenodd" d="M108.816 44.8658C109.575 41.7732 109.784 38.6544 109.522 35.6231C109.075 30.4445 107.287 25.5226 104.561 21.4264C102.142 17.797 99.0029 14.8415 95.4335 12.9743C92.8291 11.6147 90.0212 10.6928 87.1348 10.2172C81.5365 9.29819 75.6707 10.0509 70.427 12.5571C69.8922 12.8138 69.366 13.0851 68.8428 13.3798C65.66 12.5191 62.5033 12.1107 59.3291 12.0932C57.7217 12.0407 56.1957 12.0932 54.7482 12.2391C58.12 8.55714 62.0411 5.71838 66.2529 3.70528C73.3279 0.323866 81.2051 -0.700188 88.687 0.528093C92.5878 1.16995 96.3898 2.42157 99.9273 4.26837C104.976 6.90582 109.362 11.002 112.682 15.991C116.289 21.4089 118.655 27.912 119.242 34.7391C119.739 40.5041 118.987 46.4996 116.67 52.2763C114.557 50.4704 112.726 48.6353 111.336 47.3049C110.473 46.4792 109.636 45.6652 108.816 44.8629V44.8658Z" fill="#F7941D"/>
<path fill-rule="evenodd" clip-rule="evenodd" d="M103.343 22.1529C100.523 18.2434 98.2325 16.3412 94.5701 14.4302L99.9213 4.24219C104.877 6.83004 109.368 10.9875 112.632 15.889L103.34 22.1529H103.343Z" fill="#FCAF17"/>
<path fill-rule="evenodd" clip-rule="evenodd" d="M103.343 22.1528C100.523 18.2433 98.2325 16.341 94.5701 14.4301L95.3549 12.9363L95.4334 12.9771C98.9796 14.8298 102.104 17.7619 104.517 21.3621L103.345 22.1528H103.343Z" fill="#F0A31F"/>
<path fill-rule="evenodd" clip-rule="evenodd" d="M107.752 43.8214C108.403 41.0965 108.604 38.246 108.214 34.8238L119.015 33.0178C119.966 38.5436 119.356 44.6529 117.446 50.2283L116.978 51.5004L115.929 51.6346L112.664 48.5916C112.188 48.1306 111.743 47.6988 111.339 47.3108C110.098 46.1205 108.906 44.9593 107.752 43.8244V43.8214Z" fill="#FCAF17"/>
<path fill-rule="evenodd" clip-rule="evenodd" d="M107.752 43.8213C108.403 41.0963 108.604 38.2459 108.214 34.8236L109.42 34.6223C109.461 34.9549 109.496 35.2904 109.525 35.6259C109.787 38.6573 109.58 41.7761 108.819 44.8687C108.458 44.5186 108.104 44.1685 107.755 43.8242L107.752 43.8213Z" fill="#F0A31F"/>
<path fill-rule="evenodd" clip-rule="evenodd" d="M81.1384 11.533C76.912 11.6964 73.5373 12.5629 70.0463 14.1296L64.323 4.67097C69.1423 1.9139 75.0372 0.350104 80.8913 0L81.1384 11.533Z" fill="#FCAF17"/>
<path fill-rule="evenodd" clip-rule="evenodd" d="M81.1383 11.5331C77.127 11.6878 73.8831 12.4755 70.5811 13.8934C70.3049 13.803 70.0259 13.7184 69.7498 13.6367L69.4097 13.0736C69.7468 12.8956 70.0869 12.7235 70.4299 12.5601C73.8104 10.9438 77.4467 10.0569 81.1063 9.87598L81.1412 11.5331H81.1383Z" fill="#F0A31F"/>
<path opacity="0.18" fill-rule="evenodd" clip-rule="evenodd" d="M109.493 45.5252V45.5193C110.694 40.4953 110.545 35.2905 109.258 30.567C108.115 26.3803 106.078 22.605 103.296 19.7196C102.994 19.4045 102.683 19.0982 102.363 18.8006C103.11 19.4249 103.828 20.0901 104.505 20.7933C107.287 23.6758 109.325 27.454 110.467 31.6406C111.757 36.3641 111.903 41.569 110.705 46.593L110.685 46.6805C110.284 46.2925 109.886 45.9103 109.493 45.5281V45.5252ZM57.1548 12.0903C63.5932 6.01013 71.1099 2.71624 78.6761 1.77971C86.408 0.82276 94.1544 2.33696 100.828 5.8555C103.697 7.3697 106.374 9.25442 108.772 11.4717C106.697 9.71247 104.435 8.19244 102.04 6.92623C95.3694 3.40769 87.6201 1.89058 79.8882 2.85044C72.7755 3.73154 65.7093 6.69283 59.5383 12.0961H59.3348C58.5907 12.0698 57.8669 12.0698 57.1577 12.0903H57.1548Z" fill="white"/>
<path fill-rule="evenodd" clip-rule="evenodd" d="M131.852 58.5082C138.493 52.8044 140.508 44.682 140.278 35.3867C132.924 47.5674 126.018 51.3835 115.815 51.5323C120.277 55.4914 126.195 59.6752 131.852 58.5082Z" fill="url(#paint0_linear_0_128)"/>
<path fill-rule="evenodd" clip-rule="evenodd" d="M54.7365 35.3169C55.4981 38.7975 59.2361 42.8237 61.9917 45.6478C58.6112 43.8594 54.5737 42.3685 49.2835 41.4758C41.697 40.195 36.2091 41.8405 32.2385 44.8426C30.9596 42.3773 30.8666 39.6581 30.9625 36.8194C34.0785 29.8757 43.473 30.2899 54.7365 35.3169Z" fill="url(#paint1_linear_0_128)"/>
<path fill-rule="evenodd" clip-rule="evenodd" d="M131.852 58.5082C112.571 71.2666 92.9394 61.3703 76.7664 49.3209C57.5152 33.6217 36.0055 25.5781 30.9595 36.8193C31.6513 27.4599 39.0692 11.4281 59.329 12.0962C65.9069 12.1341 72.4151 13.8496 79.2401 17.7912C88.6985 23.2528 96.8693 33.435 111.336 47.3078C115.583 51.3807 123.972 60.1333 131.852 58.5082Z" fill="url(#paint2_linear_0_128)"/>
<path fill-rule="evenodd" clip-rule="evenodd" d="M131.852 58.5082C131.424 58.7912 130.997 59.0596 130.57 59.3193C123.623 59.7919 116.693 52.784 112.528 48.4573C117.03 52.8132 124.652 59.9932 131.852 58.5082ZM110.502 64.4016C98.5203 63.646 86.9574 56.9123 76.7664 49.3209C57.5152 33.6216 36.0055 25.578 30.9595 36.8193C31.035 35.7923 31.192 34.6865 31.4391 33.5283C37.1682 22.9989 58.1634 31.804 76.6792 48.0372C86.7713 56.1304 98.3168 63.3921 110.499 64.4016H110.502Z" fill="#0095DA"/>
<path fill-rule="evenodd" clip-rule="evenodd" d="M50.644 58.4818C59.4048 62.8668 72.4734 62.9106 81.2953 58.6539C70.4126 53.4841 66.3606 44.3609 49.2836 41.4784C31.4626 38.4675 25.2102 51.6168 23.0186 60.5357C30.2272 50.5811 39.8746 53.0931 50.6469 58.4847L50.644 58.4818Z" fill="#7BAA41"/>
<path fill-rule="evenodd" clip-rule="evenodd" d="M42.6445 96.862H43.5427V92.0744H45.3623V91.2691H40.8162V92.0744H42.6445V96.862ZM52.3442 96.862V91.2691H51.4606V93.7111H48.519V91.2691H47.6295V96.862H48.519V94.5397H51.4606V96.862H52.3442ZM59.2854 95.9839H56.0648V94.4843H59.1343V93.6557H56.0648V92.1386H59.2593V91.2691H55.1724V96.862H59.2825V95.9839H59.2854ZM66.5668 96.7016L64.9041 94.8431C66 94.6826 66.4156 93.9007 66.4156 93.1043C66.4156 92.1619 65.7413 91.2779 64.4507 91.2779C63.5845 91.2779 62.727 91.2691 61.8579 91.2691V96.862H62.7473V94.9306H63.9246L65.6163 96.862H66.6569L66.561 96.7016H66.5668ZM64.4536 92.089C65.1861 92.089 65.5116 92.617 65.5116 93.1189C65.5116 93.6207 65.1861 94.1166 64.4478 94.1166H62.7532V92.089H64.4536ZM73.8655 96.8591H74.755V91.2808H73.7202L71.8919 93.8949L70.0548 91.2808H69.02V96.8591H69.9095V92.582L71.7785 95.2195H71.9704L73.8626 92.582V96.8591H73.8655ZM81.9753 96.8591H82.92L80.4231 91.2662H79.4523L76.9554 96.8591H77.9001L78.4233 95.6863H81.4346L81.9666 96.8591H81.9753ZM81.1178 94.8723H78.7663L79.9435 92.2115L81.1207 94.8723H81.1178ZM89.027 92.0569C88.559 91.3071 87.7538 91.1145 86.9516 91.1145C85.9488 91.1145 84.7977 91.5609 84.8064 92.7191C84.8064 93.9153 85.8558 94.1954 86.9603 94.3471C87.7393 94.4522 88.3846 94.6593 88.3846 95.2662C88.3846 95.9693 87.6463 96.191 86.9778 96.191C86.3092 96.191 85.6436 95.9518 85.2453 95.2749L84.5768 95.7213C85.0855 96.6636 85.9052 96.9904 86.969 96.9904C88.1288 96.9904 89.2653 96.5207 89.2741 95.2662C89.2741 94.0145 88.184 93.6936 87.0417 93.5361C86.3092 93.431 85.6901 93.2793 85.6901 92.7396C85.6901 92.1998 86.2307 91.8935 86.9778 91.8935C87.5591 91.9022 88.091 92.1327 88.3526 92.5149L89.027 92.0598V92.0569ZM97.6803 92.089L99.3662 92.0831C100.828 92.0831 100.837 94.3238 99.3662 94.3238H97.6803V92.089ZM99.3662 95.1436C102.029 95.129 102.02 91.2575 99.3662 91.2575C98.5145 91.2575 97.6425 91.2662 96.7908 91.2662V96.8591H97.6803V95.1436H99.3662ZM107.706 96.8591H108.65L106.153 91.2662H105.183L102.686 96.8591H103.63L104.154 95.6863H107.165L107.697 96.8591H107.706ZM106.848 94.8723H104.497L105.674 92.2115L106.851 94.8723H106.848ZM115.562 96.6987L113.9 94.8402C114.996 94.6797 115.411 93.8978 115.411 93.1013C115.411 92.159 114.737 91.275 113.449 91.275C112.583 91.275 111.726 91.2662 110.856 91.2662V96.8591H111.746V94.9277H112.923L114.615 96.8591H115.655L115.56 96.6987H115.562ZM113.449 92.086C114.182 92.086 114.507 92.6141 114.507 93.1159C114.507 93.6177 114.182 94.1137 113.443 94.1137H111.749V92.086H113.449ZM122.283 91.2633H121.178L118.914 93.6761V91.2633H118.024V96.8562H118.914V94.3063L121.393 96.8562H122.507V96.8008L119.734 93.9649L122.286 91.2954V91.2633H122.283Z" fill="white"/>
<path fill-rule="evenodd" clip-rule="evenodd" d="M16.4114 69.843H13.4408L8.64757 81.1806L3.97067 69.843H1L6.97912 84.2002L7.09539 84.4394C7.1855 84.5999 7.37153 84.7604 7.65057 84.9179C7.93252 85.0784 8.26389 85.1572 8.64757 85.1572C9.0051 85.1572 9.32193 85.0667 9.59517 84.8858C9.8713 84.7049 10.0399 84.562 10.1038 84.4569C10.1678 84.349 10.2114 84.2644 10.2375 84.1973L16.4085 69.8401L16.4114 69.843ZM20.6174 69.843C20.3616 69.843 20.1233 69.8926 19.8995 69.9918C19.6757 70.091 19.5042 70.2019 19.3821 70.3215C19.26 70.4411 19.1466 70.5783 19.0362 70.7329C18.9286 70.8875 18.8618 70.9925 18.8356 71.0538C18.8095 71.1151 18.792 71.1647 18.7775 71.2026L13.4873 85.1601H16.3824L17.5886 81.8603H23.7218L24.9688 85.1601H27.8639L22.4022 71.1822L22.2307 70.8408C22.1289 70.6279 21.9313 70.4061 21.6377 70.1815C21.3441 69.9539 21.004 69.8401 20.6233 69.8401L20.6174 69.843ZM18.4897 79.3834L20.6174 73.2449L22.8033 79.3834H18.4897ZM31.4566 69.843H28.5818V82.721C28.5818 83.109 28.6429 83.4475 28.765 83.7421C28.8871 84.0368 29.0644 84.2673 29.3027 84.4424C29.5382 84.6145 29.7649 84.7545 29.9829 84.8625C30.2009 84.9704 30.4741 85.0434 30.8084 85.0813C31.1398 85.1221 31.3897 85.1455 31.5554 85.1513C31.7211 85.1571 31.9391 85.1601 32.2065 85.1601H38.1101V82.721H32.9361C32.3606 82.721 31.9711 82.6568 31.7676 82.5314C31.5641 82.4059 31.4595 82.1025 31.4595 81.6211V69.843H31.4566ZM48.926 72.2821V69.843H43.0224C42.755 69.843 42.537 69.846 42.3713 69.8518C42.2056 69.8576 41.9557 69.881 41.6243 69.9218C41.2929 69.9627 41.0168 70.0356 40.7988 70.1406C40.5808 70.2486 40.3541 70.3886 40.1186 70.5608C39.8832 70.7329 39.7029 70.9663 39.5809 71.261C39.4588 71.5556 39.3977 71.8941 39.3977 72.2821V82.721C39.3977 83.109 39.4588 83.4475 39.5809 83.7421C39.7029 84.0368 39.8803 84.2673 40.1186 84.4424C40.3541 84.6145 40.5808 84.7545 40.7988 84.8625C41.0168 84.9704 41.29 85.0434 41.6243 85.0813C41.9557 85.1221 42.2056 85.1455 42.3713 85.1513C42.537 85.1571 42.755 85.1601 43.0224 85.1601H48.926V82.721H43.752C43.1765 82.721 42.787 82.6568 42.5835 82.5314C42.38 82.4059 42.2754 82.1025 42.2754 81.6211V78.7211H48.4289V76.282H42.2754V73.382C42.2754 72.9006 42.3771 72.6001 42.5835 72.4717C42.787 72.3463 43.1765 72.2821 43.752 72.2821H48.926ZM57.8583 69.7409C57.5909 69.7409 57.3729 69.7438 57.2072 69.7497C57.0415 69.7555 56.7915 69.7789 56.4602 69.8197C56.1288 69.8605 55.8527 69.9335 55.6347 70.0385C55.4167 70.1465 55.1899 70.2865 54.9545 70.4586C54.7191 70.6308 54.5388 70.8642 54.4168 71.1588C54.2947 71.4535 54.2336 71.7919 54.2336 72.18V82.8173C54.2336 83.2053 54.2947 83.5438 54.4168 83.8384C54.5388 84.1331 54.7161 84.3636 54.9545 84.5386C55.1899 84.7108 55.4167 84.8508 55.6347 84.9588C55.8527 85.0667 56.1259 85.1397 56.4602 85.1776C56.7915 85.2184 57.0415 85.2418 57.2072 85.2476C57.3729 85.2534 57.5909 85.2563 57.8583 85.2563C60.7447 85.2563 62.8375 84.5853 64.1368 83.2462C65.4332 81.907 66.0814 79.9902 66.0814 77.4957C66.0814 75.0012 65.4332 73.0873 64.1368 71.7453C62.8404 70.4061 60.7476 69.7351 57.8583 69.7351V69.7409ZM58.5879 72.18C59.8669 72.18 60.922 72.6176 61.7591 73.4899C62.5963 74.3623 63.0148 75.6985 63.0148 77.4986C63.0148 79.2988 62.5963 80.635 61.7591 81.5073C60.922 82.3797 59.8639 82.8173 58.5879 82.8173C58.0124 82.8173 57.6229 82.7531 57.4194 82.6277C57.2159 82.5022 57.1113 82.1988 57.1113 81.7174V73.277C57.1113 72.7985 57.213 72.4951 57.4194 72.3667C57.6229 72.2412 58.0124 72.1771 58.5879 72.1771V72.18ZM72.2059 69.8401C71.9501 69.8401 71.7117 69.8897 71.4879 69.9889C71.2641 70.0881 71.0926 70.199 70.9705 70.3186C70.8484 70.4382 70.7351 70.5753 70.6246 70.73C70.5171 70.8846 70.4502 70.9896 70.424 71.0509C70.3979 71.1122 70.3804 71.1618 70.3659 71.1997L65.0757 85.1572H67.9708L69.1771 81.8574H75.3102L76.5572 85.1572H79.4523L73.9906 71.1793L73.8191 70.8379C73.7174 70.6249 73.5197 70.4032 73.2261 70.1786C72.9325 69.951 72.5925 69.8372 72.2117 69.8372L72.2059 69.8401ZM70.0781 79.3804L72.2059 73.242L74.3917 79.3804H70.0781ZM90.3089 70.3419C88.2015 69.8343 86.3936 69.6622 84.885 69.8226C83.3764 69.9831 82.237 70.4995 81.4638 71.3718C80.6906 72.2442 80.4115 73.382 80.6295 74.7824C80.7458 75.5293 81.1004 76.177 81.6934 76.7226C82.2864 77.2682 82.9636 77.6999 83.7252 78.0121C84.4868 78.3243 85.2396 78.616 85.9866 78.8815C86.7337 79.147 87.3644 79.4651 87.876 79.8327C88.3876 80.2003 88.6434 80.6233 88.6434 81.1018C88.6434 81.6736 88.3294 82.0908 87.7045 82.3505C87.0796 82.6102 86.3238 82.7181 85.4431 82.6714C84.5623 82.6247 83.7136 82.5343 82.9026 82.4001C82.0916 82.2659 81.4231 82.1054 80.8999 81.9216L79.9784 84.0806C80.5801 84.3607 81.3097 84.6057 82.173 84.8216C83.0363 85.0346 83.9897 85.1747 85.039 85.2418C86.0854 85.3089 87.0679 85.2563 87.9806 85.0813C88.8933 84.9092 89.6956 84.5124 90.3874 83.8909C91.0763 83.2724 91.4919 82.4468 91.6344 81.4198C91.7623 80.5533 91.646 79.7947 91.2885 79.1412C90.9309 78.4877 90.4426 77.9888 89.8235 77.6416C89.2044 77.2944 88.5242 76.9706 87.783 76.673C87.0418 76.3725 86.35 76.1186 85.7047 75.9144C85.0594 75.7073 84.5245 75.4389 84.1031 75.1033C83.6816 74.7678 83.4898 74.3827 83.5275 73.9422C83.5537 73.5833 83.6932 73.2828 83.949 73.0436C84.2048 72.8043 84.5071 72.6264 84.8588 72.5126C85.2105 72.3988 85.6262 72.32 86.1058 72.2733C86.5854 72.2267 87.0156 72.2092 87.3993 72.2237C87.783 72.2383 88.187 72.2675 88.6172 72.3142C89.0445 72.3609 89.3293 72.3988 89.4689 72.4251C89.6084 72.4513 89.7247 72.4717 89.8148 72.4863L90.3118 70.3478L90.3089 70.3419ZM104.607 68.3814L106.773 65.9219H103.686L102.305 68.3814H104.604H104.607ZM103.744 69.8401C103.488 69.8401 103.25 69.8897 103.026 69.9889C102.802 70.0881 102.63 70.199 102.508 70.3186C102.386 70.4382 102.273 70.5753 102.163 70.73C102.055 70.8846 101.988 70.9896 101.962 71.0509C101.936 71.1122 101.918 71.1618 101.904 71.1997L96.6136 85.1572H99.5087L100.715 81.8574H106.848L108.095 85.1572H110.99L105.528 71.1793L105.357 70.8379C105.255 70.6249 105.058 70.4032 104.764 70.1786C104.47 69.951 104.13 69.8372 103.75 69.8372L103.744 69.8401ZM101.616 79.3804L103.744 73.242L105.93 79.3804H101.616ZM117.208 69.7205C116.339 69.7205 115.525 69.8693 114.763 70.1698C114.002 70.4703 113.345 70.8729 112.789 71.3806C112.234 71.8882 111.758 72.4746 111.362 73.1398C110.967 73.805 110.67 74.5111 110.47 75.2492C110.272 75.9903 110.173 76.7401 110.173 77.4986C110.173 79.964 110.886 81.8749 112.31 83.2287C113.734 84.5824 115.545 85.2593 117.743 85.2593C118.766 85.2593 119.644 85.0696 120.379 84.6903C121.114 84.3111 121.481 83.7071 121.481 82.8815V77.5016H119.048V82.12C119.048 82.6277 118.632 82.8786 117.801 82.8786C116.446 82.8786 115.315 82.4293 114.409 81.5277C113.502 80.6291 113.048 79.2842 113.048 77.4986C113.048 75.7131 113.502 74.3477 114.409 73.4491C115.315 72.5505 116.446 72.0983 117.801 72.0983C118.76 72.0983 119.737 72.2704 120.734 72.6176L121.481 71.2376C120.114 70.2252 118.687 69.7176 117.208 69.7176V69.7205ZM135.674 69.8401H132.799V79.36C132.799 80.2936 132.509 81.0493 131.927 81.6299C131.346 82.2104 130.448 82.4993 129.236 82.4993C128.024 82.4993 127.12 82.2104 126.532 81.6299C125.945 81.0493 125.652 80.2936 125.652 79.36V69.8401H122.777V79.5788C122.777 81.3644 123.364 82.7414 124.541 83.7071C125.716 84.6728 127.282 85.1572 129.239 85.1572C131.195 85.1572 132.756 84.6728 133.924 83.7071C135.093 82.7414 135.677 81.3644 135.677 79.5788V69.8401H135.674ZM142.755 69.8401C142.499 69.8401 142.261 69.8897 142.037 69.9889C141.813 70.0881 141.642 70.199 141.519 70.3186C141.397 70.4382 141.284 70.5753 141.174 70.73C141.066 70.8846 140.999 70.9896 140.973 71.0509C140.947 71.1122 140.929 71.1618 140.915 71.1997L135.625 85.1572H138.52L139.726 81.8574H145.859L147.106 85.1572H150.001L144.54 71.1793L144.368 70.8379C144.266 70.6249 144.069 70.4032 143.775 70.1786C143.482 69.951 143.141 69.8372 142.761 69.8372L142.755 69.8401ZM140.627 79.3804L142.755 73.242L144.941 79.3804H140.627ZM160.858 70.3419C158.751 69.8343 156.943 69.6622 155.434 69.8226C153.925 69.9831 152.786 70.4995 152.013 71.3718C151.24 72.2442 150.96 73.382 151.178 74.7824C151.295 75.5293 151.649 76.177 152.242 76.7226C152.835 77.2682 153.513 77.6999 154.274 78.0121C155.036 78.3243 155.789 78.616 156.536 78.8815C157.283 79.147 157.913 79.4651 158.425 79.8327C158.937 80.2003 159.192 80.6233 159.192 81.1018C159.192 81.6736 158.878 82.0908 158.253 82.3505C157.628 82.6102 156.873 82.7181 155.992 82.6714C155.111 82.6247 154.263 82.5343 153.452 82.4001C152.641 82.2659 151.972 82.1054 151.449 81.9216L150.527 84.0806C151.129 84.3607 151.859 84.6057 152.722 84.8216C153.585 85.0346 154.539 85.1747 155.588 85.2418C156.634 85.3089 157.617 85.2563 158.53 85.0813C159.442 84.9092 160.245 84.5124 160.936 83.8909C161.625 83.2724 162.041 82.4468 162.183 81.4198C162.311 80.5533 162.195 79.7947 161.837 79.1412C161.48 78.4877 160.992 77.9888 160.372 77.6416C159.753 77.2944 159.073 76.9706 158.332 76.673C157.591 76.3725 156.899 76.1186 156.254 75.9144C155.608 75.7073 155.073 75.4389 154.652 75.1033C154.231 74.7707 154.039 74.3827 154.076 73.9422C154.103 73.5833 154.242 73.2828 154.498 73.0436C154.754 72.8043 155.056 72.6264 155.408 72.5126C155.759 72.3988 156.175 72.32 156.655 72.2733C157.134 72.2267 157.565 72.2092 157.948 72.2237C158.332 72.2383 158.736 72.2675 159.166 72.3142C159.593 72.3609 159.878 72.3988 160.018 72.4251C160.157 72.4513 160.274 72.4717 160.364 72.4863L160.861 70.3478L160.858 70.3419Z" fill="white" stroke="#0061AF" stroke-width="0.33" stroke-miterlimit="22.93"/>
<path fill-rule="evenodd" clip-rule="evenodd" d="M142.784 81.863V79.3831H144.941L142.784 73.3234V69.8428C143.156 69.8486 143.484 69.9624 143.772 70.1812C144.066 70.4088 144.263 70.6276 144.365 70.8406L144.537 71.1819L149.998 85.1598H147.103L145.856 81.8601H142.781L142.784 81.863ZM160.858 70.3446C158.751 69.837 156.943 69.6648 155.434 69.8253C153.925 69.9858 152.786 70.5022 152.013 71.3745C151.24 72.2468 150.96 73.3847 151.178 74.7851C151.295 75.532 151.649 76.1797 152.242 76.7253C152.835 77.2708 153.513 77.7026 154.274 78.0148C155.036 78.327 155.789 78.6187 156.536 78.8842C157.283 79.1497 157.913 79.4677 158.425 79.8354C158.937 80.203 159.192 80.626 159.192 81.1045C159.192 81.6763 158.878 82.0935 158.253 82.3532C157.628 82.6128 156.873 82.7208 155.992 82.6741C155.111 82.6274 154.263 82.537 153.452 82.4028C152.641 82.2686 151.972 82.1081 151.449 81.9243L150.527 84.0833C151.129 84.3634 151.859 84.6084 152.722 84.8243C153.585 85.0373 154.539 85.1773 155.588 85.2444C156.634 85.3115 157.617 85.259 158.53 85.084C159.442 84.9118 160.245 84.5151 160.936 83.8936C161.625 83.2751 162.041 82.4494 162.183 81.4225C162.311 80.556 162.195 79.7974 161.837 79.1439C161.48 78.4904 160.992 77.9915 160.372 77.6443C159.753 77.2971 159.073 76.9732 158.332 76.6757C157.591 76.3752 156.899 76.1213 156.254 75.9171C155.608 75.71 155.073 75.4415 154.652 75.106C154.231 74.7734 154.039 74.3854 154.076 73.9448C154.103 73.586 154.242 73.2855 154.498 73.0462C154.754 72.807 155.056 72.629 155.408 72.5153C155.759 72.4015 156.175 72.3227 156.655 72.276C157.134 72.2293 157.565 72.2118 157.948 72.2264C158.332 72.241 158.736 72.2702 159.166 72.3169C159.593 72.3635 159.878 72.4015 160.018 72.4277C160.157 72.454 160.274 72.4744 160.364 72.489L160.861 70.3505L160.858 70.3446ZM142.784 69.8457V73.3263L142.755 73.2446L140.627 79.3831H142.784V81.863H139.726L138.52 85.1628H135.651V85.0986L140.918 71.2053C140.929 71.1644 140.95 71.1148 140.976 71.0565C141.002 70.9952 141.069 70.8902 141.176 70.7356C141.284 70.5809 141.4 70.4467 141.522 70.3242C141.644 70.2046 141.816 70.0937 142.04 69.9945C142.264 69.8953 142.502 69.8457 142.758 69.8457H142.787H142.784ZM135.648 80.1942V69.8428H135.671V79.5815C135.671 79.7916 135.662 79.9958 135.648 80.1913V80.1942ZM135.648 69.8428V80.1942C135.526 81.688 134.95 82.8608 133.918 83.7127C132.75 84.6784 131.186 85.1628 129.233 85.1628C127.279 85.1628 125.713 84.6784 124.536 83.7127C123.361 82.747 122.771 81.37 122.771 79.5844V69.8457H125.646V79.3656C125.646 80.2992 125.939 81.0549 126.527 81.6355C127.114 82.216 128.015 82.5049 129.23 82.5049C130.445 82.5049 131.34 82.216 131.921 81.6355C132.503 81.0549 132.794 80.2992 132.794 79.3656V69.8457H135.645L135.648 69.8428ZM135.648 85.0957V85.1598H135.625L135.648 85.0957ZM110.577 85.1598V84.1183L110.984 85.1598H110.577ZM110.577 80.413V74.8755C110.769 74.2716 111.031 73.6939 111.359 73.1425C111.755 72.4773 112.231 71.888 112.787 71.3833C113.342 70.8756 114.002 70.473 114.76 70.1725C115.522 69.872 116.336 69.7232 117.205 69.7232C118.687 69.7232 120.111 70.2308 121.478 71.2432L120.731 72.6232C119.734 72.276 118.757 72.1039 117.798 72.1039C116.443 72.1039 115.312 72.5532 114.406 73.4547C113.499 74.3533 113.045 75.7041 113.045 77.5042C113.045 79.3044 113.499 80.6347 114.406 81.5333C115.312 82.4319 116.443 82.8842 117.798 82.8842C118.629 82.8842 119.045 82.6303 119.045 82.1256V77.5072H121.478V82.8871C121.478 83.7127 121.111 84.3167 120.376 84.6959C119.641 85.0752 118.763 85.2649 117.74 85.2649C115.542 85.2649 113.731 84.588 112.307 83.2343C111.505 82.4728 110.929 81.5333 110.577 80.4159V80.413ZM110.577 74.8755V80.413C110.307 79.5494 110.171 78.5779 110.171 77.5013C110.171 76.7428 110.269 75.99 110.467 75.2519C110.502 75.1264 110.537 75.001 110.577 74.8755ZM110.577 84.1183V85.1598H108.092L106.845 81.8601H103.77V79.3802H105.927L103.77 73.3205V69.8399C104.142 69.8457 104.47 69.9595 104.758 70.1783C105.052 70.4059 105.249 70.6247 105.351 70.8377L105.523 71.179L110.577 84.1154V84.1183ZM103.77 68.384V65.9246H106.77L104.604 68.384H103.77ZM103.77 65.9246V68.384H102.305L103.686 65.9246H103.773H103.77ZM103.77 69.8457V73.3263L103.741 73.2446L101.613 79.3831H103.77V81.863H100.712L99.5058 85.1628H96.6107L101.901 71.2053C101.913 71.1644 101.933 71.1148 101.959 71.0565C101.985 70.9952 102.052 70.8902 102.16 70.7356C102.267 70.5809 102.383 70.4467 102.505 70.3242C102.628 70.2046 102.799 70.0937 103.023 69.9945C103.247 69.8953 103.485 69.8457 103.741 69.8457H103.77ZM72.232 81.863V79.3831H74.3888L72.232 73.3234V69.8428C72.6041 69.8486 72.9325 69.9624 73.2203 70.1812C73.5139 70.4088 73.7115 70.6276 73.8133 70.8406L73.9848 71.1819L79.4465 85.1598H76.5514L75.3044 81.8601H72.2291L72.232 81.863ZM90.306 70.3446C88.1986 69.837 86.3906 69.6648 84.8821 69.8253C83.3735 69.9858 82.234 70.5022 81.4609 71.3745C80.6877 72.2468 80.4086 73.3847 80.6266 74.7851C80.7429 75.532 81.0975 76.1797 81.6905 76.7253C82.2835 77.2708 82.9607 77.7026 83.7223 78.0148C84.4838 78.327 85.2367 78.6187 85.9837 78.8842C86.7307 79.1497 87.3615 79.4677 87.8731 79.8354C88.3847 80.203 88.6405 80.626 88.6405 81.1045C88.6405 81.6763 88.3265 82.0935 87.7016 82.3532C87.0766 82.6128 86.3209 82.7208 85.4402 82.6741C84.5594 82.6274 83.7107 82.537 82.8997 82.4028C82.0887 82.2686 81.4202 82.1081 80.897 81.9243L79.9755 84.0833C80.5772 84.3634 81.3068 84.6084 82.1701 84.8243C83.0334 85.0373 83.9868 85.1773 85.0361 85.2444C86.0825 85.3115 87.065 85.259 87.9777 85.084C88.8904 84.9118 89.6927 84.5151 90.3845 83.8936C91.0734 83.2751 91.489 82.4494 91.6315 81.4225C91.7594 80.556 91.6431 79.7974 91.2856 79.1439C90.928 78.4904 90.4397 77.9915 89.8206 77.6443C89.2015 77.2971 88.5213 76.9732 87.7801 76.6757C87.0388 76.3752 86.3471 76.1213 85.7018 75.9171C85.0565 75.71 84.5216 75.4415 84.1002 75.106C83.6787 74.7705 83.4868 74.3854 83.5246 73.9448C83.5508 73.586 83.6903 73.2855 83.9461 73.0462C84.2019 72.807 84.5042 72.629 84.8559 72.5153C85.2076 72.4015 85.6233 72.3227 86.1029 72.276C86.5825 72.2293 87.0127 72.2118 87.3964 72.2264C87.7801 72.241 88.1841 72.2702 88.6143 72.3169C89.0416 72.3635 89.3264 72.4015 89.466 72.4277C89.6055 72.454 89.7218 72.4744 89.8119 72.489L90.3089 70.3505L90.306 70.3446ZM72.232 69.8457V73.3263L72.203 73.2446L70.0752 79.3831H72.232V81.863H69.1742L67.9679 85.1628H65.5756V83.8353L70.363 71.2053C70.3746 71.1644 70.395 71.1148 70.4211 71.0565C70.4473 70.9952 70.5142 70.8902 70.6217 70.7356C70.7293 70.5809 70.8455 70.4467 70.9676 70.3242C71.0897 70.2046 71.2612 70.0937 71.485 69.9945C71.7088 69.8953 71.9472 69.8457 72.203 69.8457H72.232ZM65.5756 80.8623V74.1491C65.9099 75.1177 66.0785 76.238 66.0785 77.5042C66.0785 78.7704 65.9099 79.8908 65.5756 80.8594V80.8623ZM65.5756 74.1491V80.8623C65.2501 81.7988 64.7705 82.5953 64.1339 83.2547C63.195 84.2262 61.8376 84.8447 60.0616 85.1132V82.6012C60.704 82.3882 61.2679 82.0264 61.7591 81.5158C62.5963 80.6435 63.0148 79.3073 63.0148 77.5072C63.0148 75.707 62.5963 74.3708 61.7591 73.4985C61.2679 72.9879 60.704 72.6261 60.0616 72.4131V69.9012C61.8376 70.1696 63.195 70.7881 64.1339 71.7596C64.7705 72.419 65.253 73.2155 65.5756 74.152V74.1491ZM65.5756 83.8353V85.1628H65.0728L65.5756 83.8353ZM60.0616 69.8982V72.4102C59.6082 72.2614 59.1169 72.1856 58.585 72.1856C58.0095 72.1856 57.62 72.2498 57.4165 72.3752C57.213 72.5007 57.1084 72.8041 57.1084 73.2855V81.7259C57.1084 82.2073 57.2101 82.5078 57.4165 82.6362C57.62 82.7616 58.0095 82.8258 58.585 82.8258C59.114 82.8258 59.6082 82.75 60.0616 82.6012V85.1132C59.3872 85.2153 58.6518 85.2649 57.8583 85.2649C57.5909 85.2649 57.3729 85.262 57.2072 85.2561C57.0415 85.2503 56.7915 85.2269 56.4602 85.1861C56.1288 85.1453 55.8527 85.0723 55.6347 84.9673C55.4167 84.8593 55.1899 84.7193 54.9545 84.5472C54.7191 84.375 54.5388 84.1416 54.4168 83.847C54.2947 83.5523 54.2336 83.2139 54.2336 82.8258V72.1885C54.2336 71.8005 54.2947 71.462 54.4168 71.1674C54.5388 70.8727 54.7161 70.6422 54.9545 70.4672C55.1899 70.295 55.4167 70.155 55.6347 70.047C55.8527 69.9391 56.1259 69.8661 56.4602 69.8282C56.7915 69.7874 57.0415 69.764 57.2072 69.7582C57.3729 69.7524 57.5909 69.7494 57.8583 69.7494C58.6548 69.7494 59.3872 69.799 60.0616 69.9012V69.8982ZM20.6465 81.863V79.3831H22.8033L20.6465 73.3234V69.8428C21.0186 69.8486 21.347 69.9624 21.6348 70.1812C21.9284 70.4088 22.126 70.6276 22.2278 70.8406L22.3993 71.1819L27.861 85.1598H24.9659L23.7189 81.8601H20.6436L20.6465 81.863ZM31.4566 69.8457H28.5818V82.7237C28.5818 83.1117 28.6429 83.4502 28.765 83.7448C28.8871 84.0395 29.0644 84.27 29.3027 84.445C29.5382 84.6172 29.7649 84.7572 29.9829 84.8652C30.2009 84.9731 30.4741 85.0461 30.8084 85.084C31.1398 85.1248 31.3897 85.1482 31.5554 85.154C31.7211 85.1598 31.9391 85.1628 32.2065 85.1628H38.1101V82.7237H32.9361C32.3606 82.7237 31.9711 82.6595 31.7676 82.5341C31.5641 82.4086 31.4595 82.1052 31.4595 81.6238V69.8457H31.4566ZM48.926 72.2848V69.8457H43.0224C42.755 69.8457 42.537 69.8486 42.3713 69.8545C42.2056 69.8603 41.9557 69.8836 41.6243 69.9245C41.2929 69.9653 41.0168 70.0383 40.7988 70.1433C40.5808 70.2513 40.3541 70.3913 40.1186 70.5634C39.8832 70.7356 39.7029 70.969 39.5809 71.2636C39.4588 71.5583 39.3977 71.8967 39.3977 72.2848V82.7237C39.3977 83.1117 39.4588 83.4502 39.5809 83.7448C39.7029 84.0395 39.8803 84.27 40.1186 84.445C40.3541 84.6172 40.5808 84.7572 40.7988 84.8652C41.0168 84.9731 41.29 85.0461 41.6243 85.084C41.9557 85.1248 42.2056 85.1482 42.3713 85.154C42.537 85.1598 42.755 85.1628 43.0224 85.1628H48.926V82.7237H43.752C43.1765 82.7237 42.787 82.6595 42.5835 82.5341C42.38 82.4086 42.2754 82.1052 42.2754 81.6238V78.7238H48.4289V76.2847H42.2754V73.3847C42.2754 72.9033 42.3771 72.6028 42.5835 72.4744C42.787 72.349 43.1765 72.2848 43.752 72.2848H48.926ZM16.4114 69.8457H14.9493V73.2476L16.4114 69.8457ZM20.6465 69.8457V73.3263L20.6174 73.2446L18.4897 79.3831H20.6465V81.863H17.5886L16.3824 85.1628H14.9493V81.3058L18.7775 71.2053C18.7891 71.1644 18.8095 71.1148 18.8356 71.0565C18.8618 70.9952 18.9286 70.8902 19.0362 70.7356C19.1437 70.5809 19.26 70.4467 19.3821 70.3242C19.5042 70.2046 19.6757 70.0937 19.8995 69.9945C20.1233 69.8953 20.3616 69.8457 20.6174 69.8457H20.6465ZM14.9493 69.8457H13.4408L8.64757 81.1832L3.97067 69.8457H1L6.97912 84.2029L7.09539 84.4421C7.1855 84.6026 7.37153 84.7631 7.65057 84.9206C7.93252 85.0811 8.26389 85.1598 8.64757 85.1598C9.0051 85.1598 9.32193 85.0694 9.59517 84.8885C9.8713 84.7076 10.0399 84.5647 10.1038 84.4596C10.1678 84.3517 10.2114 84.2671 10.2375 84.2L14.9464 73.2417V69.8399L14.9493 69.8457ZM14.9493 81.3058V85.1628H13.4873L14.9493 81.3058Z" fill="white"/>
<defs>
<linearGradient id="paint0_linear_0_128" x1="129.517" y1="35.661" x2="126.221" y2="58.3646" gradientUnits="userSpaceOnUse">
<stop stop-color="#1E74BB"/>
<stop offset="0.2" stop-color="#0078B8"/>
<stop offset="1" stop-color="#0050A4"/>
</linearGradient>
<linearGradient id="paint1_linear_0_128" x1="43.7084" y1="47.2962" x2="50.1338" y2="33.3218" gradientUnits="userSpaceOnUse">
<stop stop-color="#1E74BB"/>
<stop offset="0.23" stop-color="#236EAF"/>
<stop offset="0.65" stop-color="#0B519B"/>
<stop offset="1" stop-color="#0050A4"/>
</linearGradient>
<linearGradient id="paint2_linear_0_128" x1="131.852" y1="38.2752" x2="30.9624" y2="38.2752" gradientUnits="userSpaceOnUse">
<stop stop-color="#1E74BB"/>
<stop offset="0.52" stop-color="#00A1E4"/>
<stop offset="1" stop-color="#1E74BB"/>
</linearGradient>
</defs>
</svg>
